<svg width="28" height="29" viewBox="0 0 28 29" fill="none" xmlns="http://www.w3.org/2000/svg">
<path d="M25.6666 0.833344H22.3333C21.4128 0.833344 20.6666 1.59819 20.6666 2.54168V5.95835C20.6666 6.90183 21.4128 7.66668 22.3333 7.66668H25.6666C26.5871 7.66668 27.3333 6.90183 27.3333 5.95835V2.54168C27.3333 1.59819 26.5871 0.833344 25.6666 0.833344Z" fill="#DCB035"/>
<path d="M15.6666 0.833344H12.3333C11.4128 0.833344 10.6666 1.59819 10.6666 2.54168V5.95835C10.6666 6.90183 11.4128 7.66668 12.3333 7.66668H15.6666C16.5871 7.66668 17.3333 6.90183 17.3333 5.95835V2.54168C17.3333 1.59819 16.5871 0.833344 15.6666 0.833344Z" fill="#DCB035"/>
<path d="M25.6666 11.0833H22.3333C21.4128 11.0833 20.6666 11.8482 20.6666 12.7917V16.2083C20.6666 17.1518 21.4128 17.9167 22.3333 17.9167H25.6666C26.5871 17.9167 27.3333 17.1518 27.3333 16.2083V12.7917C27.3333 11.8482 26.5871 11.0833 25.6666 11.0833Z" fill="#DCB035"/>
<path d="M15.6666 11.0833H12.3333C11.4128 11.0833 10.6666 11.8482 10.6666 12.7917V16.2083C10.6666 17.1518 11.4128 17.9167 12.3333 17.9167H15.6666C16.5871 17.9167 17.3333 17.1518 17.3333 16.2083V12.7917C17.3333 11.8482 16.5871 11.0833 15.6666 11.0833Z" fill="#DCB035"/>
<path d="M25.6666 21.3333H22.3333C21.4128 21.3333 20.6666 22.0982 20.6666 23.0417V26.4583C20.6666 27.4018 21.4128 28.1667 22.3333 28.1667H25.6666C26.5871 28.1667 27.3333 27.4018 27.3333 26.4583V23.0417C27.3333 22.0982 26.5871 21.3333 25.6666 21.3333Z" fill="#DCB035"/>
<path d="M15.6666 21.3333H12.3333C11.4128 21.3333 10.6666 22.0982 10.6666 23.0417V26.4583C10.6666 27.4018 11.4128 28.1667 12.3333 28.1667H15.6666C16.5871 28.1667 17.3333 27.4018 17.3333 26.4583V23.0417C17.3333 22.0982 16.5871 21.3333 15.6666 21.3333Z" fill="#DCB035"/>
<path d="M5.66663 0.833344H2.33329C1.41282 0.833344 0.666626 1.59819 0.666626 2.54168V5.95835C0.666626 6.90183 1.41282 7.66668 2.33329 7.66668H5.66663C6.5871 7.66668 7.3333 6.90183 7.3333 5.95835V2.54168C7.3333 1.59819 6.5871 0.833344 5.66663 0.833344Z" fill="#DCB035"/>
<path d="M5.66663 11.0833H2.33329C1.41282 11.0833 0.666626 11.8482 0.666626 12.7917V16.2083C0.666626 17.1518 1.41282 17.9167 2.33329 17.9167H5.66663C6.5871 17.9167 7.3333 17.1518 7.3333 16.2083V12.7917C7.3333 11.8482 6.5871 11.0833 5.66663 11.0833Z" fill="#DCB035"/>
<path d="M5.66663 21.3333H2.33329C1.41282 21.3333 0.666626 22.0982 0.666626 23.0417V26.4583C0.666626 27.4018 1.41282 28.1667 2.33329 28.1667H5.66663C6.5871 28.1667 7.3333 27.4018 7.3333 26.4583V23.0417C7.3333 22.0982 6.5871 21.3333 5.66663 21.3333Z" fill="#DCB035"/>
</svg>
