<svg width="26" height="26" viewBox="0 0 26 26" fill="none" xmlns="http://www.w3.org/2000/svg">
<g opacity="0.5">
<path fill-rule="evenodd" clip-rule="evenodd" d="M23.5625 8.93751H2.4375V19.5073C2.4375 20.5847 2.86569 21.6182 3.627 22.3795C4.38913 23.1416 5.42263 23.5698 6.5 23.5698C10.1067 23.5698 15.8933 23.5698 19.5 23.5698C20.5774 23.5698 21.6109 23.1416 22.373 22.3795C23.1343 21.6182 23.5625 20.5847 23.5625 19.5073V8.93751ZM7.3125 19.5H8.9375C9.386 19.5 9.75 19.136 9.75 18.6875C9.75 18.239 9.386 17.875 8.9375 17.875H7.3125C6.864 17.875 6.5 18.239 6.5 18.6875C6.5 19.136 6.864 19.5 7.3125 19.5ZM12.1875 19.5H13.8125C14.261 19.5 14.625 19.136 14.625 18.6875C14.625 18.239 14.261 17.875 13.8125 17.875H12.1875C11.739 17.875 11.375 18.239 11.375 18.6875C11.375 19.136 11.739 19.5 12.1875 19.5ZM17.0625 19.5H18.6875C19.136 19.5 19.5 19.136 19.5 18.6875C19.5 18.239 19.136 17.875 18.6875 17.875H17.0625C16.614 17.875 16.25 18.239 16.25 18.6875C16.25 19.136 16.614 19.5 17.0625 19.5ZM7.3125 16.25H8.9375C9.386 16.25 9.75 15.886 9.75 15.4375C9.75 14.989 9.386 14.625 8.9375 14.625H7.3125C6.864 14.625 6.5 14.989 6.5 15.4375C6.5 15.886 6.864 16.25 7.3125 16.25ZM12.1875 16.25H13.8125C14.261 16.25 14.625 15.886 14.625 15.4375C14.625 14.989 14.261 14.625 13.8125 14.625H12.1875C11.739 14.625 11.375 14.989 11.375 15.4375C11.375 15.886 11.739 16.25 12.1875 16.25ZM17.0625 16.25H18.6875C19.136 16.25 19.5 15.886 19.5 15.4375C19.5 14.989 19.136 14.625 18.6875 14.625H17.0625C16.614 14.625 16.25 14.989 16.25 15.4375C16.25 15.886 16.614 16.25 17.0625 16.25ZM7.3125 13H8.9375C9.386 13 9.75 12.636 9.75 12.1875C9.75 11.739 9.386 11.375 8.9375 11.375H7.3125C6.864 11.375 6.5 11.739 6.5 12.1875C6.5 12.636 6.864 13 7.3125 13ZM12.1875 13H13.8125C14.261 13 14.625 12.636 14.625 12.1875C14.625 11.739 14.261 11.375 13.8125 11.375H12.1875C11.739 11.375 11.375 11.739 11.375 12.1875C11.375 12.636 11.739 13 12.1875 13ZM17.0625 13H18.6875C19.136 13 19.5 12.636 19.5 12.1875C19.5 11.739 19.136 11.375 18.6875 11.375H17.0625C16.614 11.375 16.25 11.739 16.25 12.1875C16.25 12.636 16.614 13 17.0625 13ZM8.125 2.44482V4.87501C8.125 5.32351 7.761 5.68751 7.3125 5.68751C6.864 5.68751 6.5 5.32351 6.5 4.87501V2.44482C5.42263 2.44482 4.38913 2.87301 3.627 3.63432C2.86569 4.39645 2.4375 5.42995 2.4375 6.50732V7.31251H23.5625V6.50732C23.5625 5.42995 23.1343 4.39645 22.373 3.63432C21.6109 2.87301 20.5774 2.44482 19.5 2.44482V4.87501C19.5 5.32351 19.136 5.68751 18.6875 5.68751C18.239 5.68751 17.875 5.32351 17.875 4.87501V2.44482H8.125Z" fill="white"/>
</g>
</svg>
