<svg width="17" height="17" viewBox="0 0 17 17" fill="none" xmlns="http://www.w3.org/2000/svg">
<path opacity="0.5" d="M15.3 3.77643H13.2236V2.07643C13.2236 1.52573 13.0048 0.997578 12.6154 0.608172C12.226 0.218766 11.6978 0 11.1471 0H2.07643C1.52573 0 0.997578 0.218766 0.608172 0.608172C0.218766 0.997578 0 1.52573 0 2.07643V11.1471C0.00160179 11.6974 0.220882 12.2246 0.609941 12.6136C0.999 13.0027 1.52622 13.222 2.07643 13.2236H3.77643V15.3C3.778 15.7483 3.95595 16.1779 4.2718 16.4961C4.58765 16.8142 5.01602 16.9952 5.46429 17H15.3C15.7504 16.9984 16.1818 16.8188 16.5003 16.5003C16.8188 16.1818 16.9984 15.7504 17 15.3V5.46429C16.9952 5.01602 16.8142 4.58765 16.4961 4.2718C16.1779 3.95595 15.7483 3.778 15.3 3.77643ZM2.07643 12.0882C1.82684 12.0882 1.58748 11.9891 1.41099 11.8126C1.23451 11.6361 1.13536 11.3967 1.13536 11.1471V2.07643C1.13455 1.95262 1.15834 1.82988 1.20535 1.71534C1.25236 1.6008 1.32164 1.49674 1.40919 1.40919C1.49674 1.32164 1.6008 1.25236 1.71534 1.20535C1.82988 1.15834 1.95262 1.13455 2.07643 1.13536H11.1471C11.3967 1.13536 11.6361 1.23451 11.8126 1.41099C11.9891 1.58748 12.0882 1.82684 12.0882 2.07643V3.77643H5.46429C5.01811 3.78117 4.59154 3.96052 4.27603 4.27603C3.96052 4.59154 3.78117 5.01811 3.77643 5.46429V12.0882H2.07643ZM15.8646 15.3C15.8646 15.4498 15.8052 15.5934 15.6993 15.6993C15.5934 15.8052 15.4498 15.8646 15.3 15.8646H5.46429C5.31453 15.8646 5.17091 15.8052 5.06502 15.6993C4.95913 15.5934 4.89964 15.4498 4.89964 15.3V5.46429C4.89964 5.31453 4.95913 5.17091 5.06502 5.06502C5.17091 4.95913 5.31453 4.89964 5.46429 4.89964H15.3C15.4498 4.89964 15.5934 4.95913 15.6993 5.06502C15.8052 5.17091 15.8646 5.31453 15.8646 5.46429V15.3Z" fill="white"/>
</svg>
