<svg width="23" height="23" viewBox="0 0 23 23" fill="none" xmlns="http://www.w3.org/2000/svg">
<path fill-rule="evenodd" clip-rule="evenodd" d="M6.17711 4.73353L0.848145 10.0625L6.17711 15.3915C6.73849 15.9528 7.64866 15.9528 8.21003 15.3915C8.77142 14.8301 8.77142 13.9199 8.21003 13.3585L6.35151 11.5H16.5373C17.7282 11.5 18.6936 12.4654 18.6936 13.6562C18.6936 14.8471 17.7282 15.8125 16.5373 15.8125H14.3811C13.5872 15.8125 12.9436 16.4561 12.9436 17.25C12.9436 18.0439 13.5872 18.6875 14.3811 18.6875H16.5373C19.316 18.6875 21.5686 16.4349 21.5686 13.6562C21.5686 10.8776 19.316 8.625 16.5373 8.625H6.35151L8.21003 6.76647C8.77142 6.20508 8.77142 5.29492 8.21003 4.73353C7.64866 4.17216 6.73849 4.17216 6.17711 4.73353Z" fill="#DCB035"/>
</svg>
