<svg width="32" height="36" viewBox="0 0 32 36" fill="none" xmlns="http://www.w3.org/2000/svg">
<path d="M6.54631 12.7539C6.09167 13.0608 5.94425 13.7242 6.21703 14.2356C6.48981 14.7471 7.07951 14.913 7.53414 14.6061L6.54631 12.7539ZM13.4402 9.35998L14.0162 8.49598C13.704 8.23252 13.281 8.20797 12.9463 8.43389L13.4402 9.35998ZM18.5602 13.68L17.9842 14.544C18.3344 14.8395 18.818 14.831 19.1599 14.5233L18.5602 13.68ZM26.3599 7.86332C26.774 7.4907 26.841 6.81108 26.5099 6.34531C26.1786 5.87955 25.5745 5.80403 25.1605 6.17665L26.3599 7.86332ZM22.7202 28.08C22.7202 28.6764 23.15 29.16 23.6802 29.16C24.2104 29.16 24.6402 28.6764 24.6402 28.08H22.7202ZM24.6402 16.56C24.6402 15.9635 24.2104 15.48 23.6802 15.48C23.15 15.48 22.7202 15.9635 22.7202 16.56H24.6402ZM12.4802 28.08C12.4802 28.6764 12.91 29.16 13.4402 29.16C13.9704 29.16 14.4002 28.6764 14.4002 28.08H12.4802ZM14.4002 16.56C14.4002 15.9635 13.9704 15.48 13.4402 15.48C12.91 15.48 12.4802 15.9635 12.4802 16.56H14.4002ZM17.6002 28.08C17.6002 28.6764 18.03 29.16 18.5602 29.16C19.0904 29.16 19.5202 28.6764 19.5202 28.08H17.6002ZM19.5202 20.88C19.5202 20.2835 19.0904 19.8 18.5602 19.8C18.03 19.8 17.6002 20.2835 17.6002 20.88H19.5202ZM7.36022 28.08C7.36022 28.6764 7.79003 29.16 8.32022 29.16C8.85041 29.16 9.28022 28.6764 9.28022 28.08H7.36022ZM9.28022 20.88C9.28022 20.2835 8.85041 19.8 8.32022 19.8C7.79003 19.8 7.36022 20.2835 7.36022 20.88H9.28022ZM7.53414 14.6061L13.9342 10.2861L12.9463 8.43389L6.54631 12.7539L7.53414 14.6061ZM12.8642 10.224L17.9842 14.544L19.1362 12.816L14.0162 8.49598L12.8642 10.224ZM19.1599 14.5233L26.3599 7.86332L25.1605 6.17665L17.9605 12.8366L19.1599 14.5233ZM24.6402 28.08V16.56H22.7202V28.08H24.6402ZM14.4002 28.08V16.56H12.4802V28.08H14.4002ZM19.5202 28.08V20.88H17.6002V28.08H19.5202ZM9.28022 28.08V20.88H7.36022V28.08H9.28022Z" fill="black"/>
<path d="M28.4799 29.16C27.9497 29.16 27.5199 28.6764 27.5199 28.08V12.96C27.5199 12.3635 27.9497 11.88 28.4799 11.88C29.0101 11.88 29.4399 12.3635 29.4399 12.96V28.08C29.4399 28.6764 29.0101 29.16 28.4799 29.16Z" fill="black"/>
<path d="M25.4795 3.0697L30.0595 3.65178L28.6043 8.49218" stroke="black" stroke-width="1.5" stroke-linecap="round"/>
</svg>
