<svg width="36" height="36" viewBox="0 0 36 36" fill="none" xmlns="http://www.w3.org/2000/svg">
<path d="M17.5884 25.6528C17.4399 25.3266 17.1324 25.0885 16.7603 25.0462C16.4451 25.0102 16.1366 24.9427 15.8432 24.8454C15.7116 24.8011 15.5882 24.7528 15.4739 24.7011L15.6638 24.1834C15.7979 24.2433 15.936 24.298 16.0775 24.3475L16.0833 24.3496L16.0893 24.3516C16.5432 24.5016 16.9899 24.5776 17.4167 24.5776C17.8452 24.5776 18.1559 24.5202 18.3945 24.397L18.4088 24.3897L18.4227 24.3816C18.7842 24.1741 18.9917 23.8176 18.9917 23.4031C18.9917 22.9432 18.7436 22.5615 18.3108 22.3552C18.0932 22.2493 17.784 22.1482 17.3387 22.0375C16.8819 21.922 16.4982 21.7995 16.2006 21.6739C15.9831 21.5755 15.7944 21.4185 15.6243 21.1939C15.4779 20.9935 15.4038 20.6922 15.4038 20.2978C15.4038 19.822 15.5378 19.4293 15.8135 19.0972C16.0589 18.8062 16.4073 18.6085 16.875 18.4977C17.222 18.4155 17.4926 18.1678 17.6142 17.848C17.7518 18.1722 18.0444 18.4132 18.4086 18.4713C18.7128 18.5197 18.9921 18.597 19.2432 18.7015L19.0685 19.2088C18.5943 19.0185 18.1277 18.9223 17.6763 18.9223C16.1774 18.9223 16.1015 19.9564 16.1015 20.1637C16.1015 20.6131 16.3442 20.9899 16.7673 21.1977L16.7792 21.2035L16.7912 21.2089C17.0049 21.3043 17.3082 21.3963 17.7459 21.4983C18.1985 21.6006 18.5759 21.7177 18.8724 21.8476L18.8786 21.8503L18.8847 21.8529C19.1049 21.9445 19.2938 22.0975 19.4621 22.3207L19.4648 22.3242L19.4675 22.3278C19.6146 22.518 19.6893 22.8121 19.6893 23.2021C19.6893 23.6523 19.559 24.0333 19.2908 24.367C19.0581 24.6565 18.7334 24.8569 18.2976 24.9796C17.9612 25.0744 17.7002 25.3317 17.5884 25.6528Z" fill="#DCB035"/>
<path d="M17.9678 27H17.2456C17.084 27 16.9531 26.8658 16.9531 26.7V26.0978C16.9531 25.9394 16.8329 25.8092 16.6793 25.7916C16.3136 25.7501 15.9599 25.6725 15.6181 25.5591C15.286 25.4472 14.9982 25.3146 14.7549 25.1608C14.6431 25.0902 14.6024 24.9468 14.6486 24.8208L15.1441 23.4699C15.2108 23.2881 15.4261 23.2185 15.5918 23.3126C15.8156 23.4393 16.0562 23.5478 16.3133 23.6378C16.6966 23.7644 17.0644 23.8277 17.4166 23.8277C17.7194 23.8277 17.9359 23.7942 18.0656 23.7272C18.1954 23.6526 18.2603 23.5446 18.2603 23.4032C18.2603 23.2394 18.1738 23.1165 18.0007 23.0346C17.8339 22.9527 17.5556 22.8633 17.1664 22.7666C16.6657 22.64 16.2485 22.5059 15.9148 22.3644C15.581 22.2155 15.2905 21.9771 15.0433 21.6495C14.796 21.3144 14.6724 20.8638 14.6724 20.2979C14.6724 19.6425 14.8671 19.0803 15.2564 18.6111C15.6074 18.195 16.0919 17.9136 16.7102 17.7671C16.8494 17.7341 16.9531 17.6102 16.9531 17.4638V16.8C16.9531 16.6342 17.084 16.5 17.2456 16.5H17.9678C18.1294 16.5 18.2603 16.6342 18.2603 16.8V17.4258C18.2603 17.5791 18.3731 17.7068 18.5207 17.7303C19.0624 17.8166 19.5383 17.9799 19.9484 18.2204C20.0648 18.2886 20.111 18.4338 20.0663 18.5634L19.6027 19.9088C19.5413 20.0871 19.3366 20.1626 19.1719 20.0774C18.6496 19.8074 18.1511 19.6723 17.6762 19.6723C17.1137 19.6723 16.8325 19.8362 16.8325 20.1638C16.8325 20.3202 16.916 20.4393 17.0828 20.5213C17.2498 20.5957 17.5247 20.6777 17.908 20.7671C18.4024 20.8788 18.8197 21.009 19.1596 21.158C19.4995 21.2994 19.793 21.534 20.0404 21.8618C20.2937 22.1894 20.4205 22.6362 20.4205 23.2022C20.4205 23.8277 20.2319 24.375 19.8548 24.8442C19.5265 25.2531 19.0718 25.5393 18.4912 25.703C18.3577 25.7406 18.2603 25.8618 18.2603 26.0037V26.7C18.2603 26.8658 18.1294 27 17.9678 27Z" fill="#DCB035"/>
<path fill-rule="evenodd" clip-rule="evenodd" d="M14.3885 7.5H20.7211C22.3431 7.5 21.4524 9.996 20.7957 11.5185L20.0484 13.2645L19.9474 13.5C20.6553 13.4648 21.3553 13.6658 21.9423 14.073C24.1381 16.1337 25.9203 18.6147 27.1884 21.3765C27.6825 22.3977 27.8785 23.5437 27.7528 24.6765C27.6019 27.5638 25.3434 29.8647 22.5273 30H12.5823C9.76549 29.8687 7.5036 27.5703 7.34952 24.6825C7.2238 23.5497 7.41984 22.4037 7.91404 21.3825C9.18363 18.618 10.9682 16.1347 13.1673 14.073C13.7544 13.6658 14.4543 13.4648 15.1621 13.5L15.0451 13.2285L14.3139 11.5185C13.6602 9.996 12.7651 7.5 14.3885 7.5Z" stroke="#DCB035" stroke-width="1.5" stroke-linecap="round" stroke-linejoin="round"/>
<path d="M19.6052 14.3742C20.2037 14.3742 20.689 13.889 20.689 13.2904C20.689 12.6918 20.2037 12.2066 19.6052 12.2066V14.3742ZM14.9949 12.2066C14.3964 12.2066 13.9111 12.6918 13.9111 13.2904C13.9111 13.889 14.3964 14.3742 14.9949 14.3742V12.2066ZM23.4771 12.7844C23.9957 12.4856 24.174 11.8229 23.8752 11.3043C23.5763 10.7856 22.9138 10.6073 22.3951 10.9061L23.4771 12.7844ZM19.7024 13.0635L19.9115 14.127L19.9147 14.1264L19.7024 13.0635ZM14.8822 13.0288L15.1066 11.9684L15.0968 11.9664L14.8822 13.0288ZM12.1884 10.8967C11.6645 10.6071 11.005 10.7971 10.7155 11.321C10.426 11.8449 10.616 12.5043 11.1399 12.7939L12.1884 10.8967ZM19.6052 12.2066H14.9949V14.3742H19.6052V12.2066ZM22.3951 10.9061C21.489 11.428 20.5084 11.7973 19.4901 12.0006L19.9147 14.1264C21.1652 13.8766 22.3679 13.4234 23.4771 12.7844L22.3951 10.9061ZM19.4933 12C18.0433 12.2852 16.5528 12.2744 15.1066 11.9684L14.6579 14.0892C16.3896 14.4556 18.1749 14.4685 19.9115 14.127L19.4933 12ZM15.0968 11.9664C14.0813 11.7614 13.1009 11.401 12.1884 10.8967L11.1399 12.7939C12.2451 13.4047 13.4343 13.8422 14.6677 14.0912L15.0968 11.9664Z" fill="#DCB035"/>
</svg>
