<svg width="28" height="28" viewBox="0 0 28 28" fill="none" xmlns="http://www.w3.org/2000/svg">
<g clip-path="url(#clip0_136_704)">
<path d="M-6.48433e-05 22.764C-6.48433e-05 23.2493 0.167935 23.66 0.503935 23.996C0.839935 24.332 1.25994 24.5 1.76394 24.5H6.99994V22.764H6.13194C5.88927 22.764 5.68394 22.68 5.51594 22.512C5.34794 22.344 5.26394 22.1387 5.26394 21.896C5.26394 21.6533 5.34794 21.448 5.51594 21.28C5.68394 21.112 5.88927 21.0187 6.13194 21H9.63194C9.85594 21 10.0613 21.0933 10.2479 21.28C10.4346 21.4667 10.5186 21.672 10.4999 21.896C10.4813 22.12 10.3973 22.3253 10.2479 22.512C10.0986 22.6987 9.89327 22.7827 9.63194 22.764H8.76394V24.5H19.2639V22.764H18.3679C18.1439 22.764 17.9386 22.68 17.7519 22.512C17.5653 22.344 17.4813 22.1387 17.4999 21.896C17.5186 21.6533 17.6026 21.448 17.7519 21.28C17.9013 21.112 18.1066 21.0187 18.3679 21H21.8679C22.1106 21 22.3159 21.0933 22.4839 21.28C22.6519 21.4667 22.7453 21.672 22.7639 21.896C22.7826 22.12 22.6893 22.3253 22.4839 22.512C22.2786 22.6987 22.0733 22.7827 21.8679 22.764H20.9999V24.5H26.2639C26.7306 24.5 27.1413 24.332 27.4959 23.996C27.8506 23.66 28.0186 23.2493 27.9999 22.764V5.264C27.9999 4.77867 27.8319 4.368 27.4959 4.032C27.1599 3.696 26.7493 3.51867 26.2639 3.5H1.76394C1.2786 3.5 0.858602 3.67733 0.503935 4.032C0.149269 4.38667 -0.0187315 4.79733 -6.48433e-05 5.264V22.764ZM3.49994 19.264V7H15.7639V19.264H3.49994ZM6.15994 17.5H13.1039C12.4506 16.6413 11.5826 16.1 10.4999 15.876V15.596C11.0226 15.3907 11.4426 15.0733 11.7599 14.644C12.0773 14.2147 12.2453 13.7107 12.2639 13.132V11.396C12.2639 10.668 12.0026 10.0427 11.4799 9.52C10.9573 8.99733 10.3413 8.74533 9.63194 8.764C8.9226 8.78267 8.29727 9.03467 7.75594 9.52C7.2146 10.0053 6.9626 10.6307 6.99994 11.396V13.132C6.99994 13.692 7.1586 14.196 7.47594 14.644C7.79327 15.092 8.2226 15.4093 8.76394 15.596V15.876C7.68127 16.1 6.81327 16.6413 6.15994 17.5ZM17.4999 19.264V17.5H19.2639V19.264H17.4999ZM17.4999 15.764V14H26.2639V15.764H17.4999ZM17.4999 12.264V10.5H20.9999V12.264H17.4999ZM17.4999 8.764V7H22.7639V8.764H17.4999ZM22.7639 12.264V10.5H26.2639V12.264H22.7639ZM24.4999 8.764V7H26.2639V8.764H24.4999Z" fill="#DCB035"/>
</g>
<defs>
<clipPath id="clip0_136_704">
<rect width="28" height="28" fill="white"/>
</clipPath>
</defs>
</svg>
