<svg width="46" height="46" viewBox="0 0 46 46" fill="none" xmlns="http://www.w3.org/2000/svg">
<g clip-path="url(#clip0_136_910)">
<path d="M16.1122 23.6218C15.2841 23.6218 14.6104 24.2956 14.6104 25.1237C14.6104 25.9518 15.2841 26.6255 16.1122 26.6255C16.9403 26.6255 17.614 25.9518 17.614 25.1237C17.614 24.2956 16.9405 23.6218 16.1122 23.6218Z" fill="#DCB035"/>
<path d="M34.1346 23.6218C33.3066 23.6218 32.6328 24.2956 32.6328 25.1237C32.6328 25.9518 33.3066 26.6255 34.1346 26.6255C34.9627 26.6255 35.6365 25.9518 35.6365 25.1237C35.6365 24.2956 34.9628 23.6218 34.1346 23.6218Z" fill="#DCB035"/>
<path d="M42.6315 31.8605L44.679 29.8116C46.4396 28.0531 46.4414 25.2003 44.679 23.4399L26.1856 4.9467L21.9383 9.19453C21.3517 9.78113 20.4013 9.78121 19.8145 9.19453C19.2279 8.60839 19.2279 7.65748 19.8145 7.0708L24.0619 2.82297L22.5601 1.32105C20.8038 -0.436126 17.954 -0.443313 16.188 1.32167L14.1385 3.36958L13.1041 2.63286C10.1846 0.554406 6.07935 0.808485 3.44476 3.44487C0.842962 6.04711 0.501734 10.1097 2.63329 13.1051L3.36857 14.1396L1.32111 16.1884C-0.439472 17.947 -0.441269 20.7997 1.32111 22.5601L2.82295 24.0619L7.07033 19.8146C7.65692 19.228 8.60738 19.228 9.19406 19.8146C9.78065 20.4007 9.78065 21.3521 9.19406 21.9383L4.94668 26.1857L23.4401 44.6791C25.1964 46.4364 28.0462 46.4435 29.8122 44.6786L31.8616 42.6301L32.8971 43.3693C35.7847 45.4332 39.8923 45.2194 42.5554 42.5554C45.1572 39.953 45.4985 35.8904 43.3669 32.895L42.6315 31.8605ZM11.3187 15.5666L15.5661 11.3187C16.1527 10.7321 17.1031 10.7321 17.6898 11.3187C18.2764 11.9049 18.2764 12.8558 17.6898 13.4425L13.4424 17.6904C12.8558 18.277 11.9055 18.2771 11.3187 17.6904C10.7321 17.1042 10.7321 16.1532 11.3187 15.5666ZM16.1127 29.6293C13.6282 29.6293 11.6072 27.6083 11.6072 25.1238C11.6072 22.6393 13.6282 20.6183 16.1127 20.6183C18.5971 20.6183 20.6182 22.6393 20.6182 25.1238C20.6182 27.6083 18.5972 29.6293 16.1127 29.6293ZM26.6256 35.6366C26.6256 36.4663 25.9529 37.1385 25.1238 37.1385C24.2947 37.1385 23.6219 36.4663 23.6219 35.6366V14.6109C23.6219 13.7813 24.2947 13.109 25.1238 13.109C25.9529 13.109 26.6256 13.7813 26.6256 14.6109V35.6366ZM34.1349 29.6293C31.6504 29.6293 29.6294 27.6083 29.6294 25.1238C29.6294 22.6393 31.6504 20.6183 34.1349 20.6183C36.6193 20.6183 38.6404 22.6393 38.6404 25.1238C38.6404 27.6083 36.6194 29.6293 34.1349 29.6293Z" fill="#DCB035"/>
</g>
<defs>
<clipPath id="clip0_136_910">
<rect width="46" height="46" fill="white"/>
</clipPath>
</defs>
</svg>
