<svg width="48" height="48" viewBox="0 0 48 48" fill="none" xmlns="http://www.w3.org/2000/svg">
<path d="M20.1796 34.14H24.9596C25.7181 34.14 26.4456 33.8387 26.9819 33.3023C27.5183 32.766 27.8196 32.0385 27.8196 31.28C27.8196 30.5215 27.5183 29.794 26.9819 29.2577C26.4456 28.7213 25.7181 28.42 24.9596 28.42H22.9596C22.2011 28.42 21.4736 28.1187 20.9373 27.5823C20.4009 27.046 20.0996 26.3185 20.0996 25.56C20.0996 24.8015 20.4009 24.074 20.9373 23.5377C21.4736 23.0013 22.2011 22.7 22.9596 22.7H27.7396" stroke="#DCB035" stroke-width="3" stroke-miterlimit="10" stroke-linecap="square"/>
<path d="M24 18.88V22.7" stroke="#DCB035" stroke-width="3" stroke-miterlimit="10" stroke-linecap="square"/>
<path d="M24 34.14V37.96" stroke="#DCB035" stroke-width="3" stroke-miterlimit="10" stroke-linecap="square"/>
<path d="M45 3.60001V22.68H35.46V13.14H12.54V22.68H3V3.60001H45Z" stroke="#DCB035" stroke-width="3" stroke-miterlimit="10" stroke-linecap="square"/>
<path d="M12.54 13.14H35.46" stroke="#DCB035" stroke-width="3" stroke-miterlimit="10" stroke-linecap="square"/>
<path d="M35.44 13.14H12.54V45.6H35.44V13.14Z" stroke="#DCB035" stroke-width="3" stroke-miterlimit="10" stroke-linecap="square"/>
<path d="M8.71973 13.14H39.2797" stroke="#DCB035" stroke-width="3" stroke-miterlimit="10"/>
</svg>
