<svg width="46" height="46" viewBox="0 0 46 46" fill="none" xmlns="http://www.w3.org/2000/svg">
<path d="M15.6787 17.5567H24.8212" stroke="#DCB035" stroke-width="3.5" stroke-miterlimit="10" stroke-linecap="square"/>
<path d="M15.6787 24.8783H24.8212" stroke="#DCB035" stroke-width="3.5" stroke-miterlimit="10" stroke-linecap="square"/>
<path d="M15.6787 32.2H24.8212" stroke="#DCB035" stroke-width="3.5" stroke-miterlimit="10" stroke-linecap="square"/>
<path d="M37.6433 43.1633H8.35667C7.6368 43.1633 6.92399 43.0215 6.25892 42.7461C5.59386 42.4706 4.98956 42.0668 4.48054 41.5578C3.45253 40.5298 2.875 39.1355 2.875 37.6817V4.75333L7.66667 8.41416L12.6308 4.75333L17.4992 8.41416L22.3867 4.75333L27.255 8.41416L32.1425 4.75333V37.6817C32.1476 39.1372 32.7294 40.5315 33.7604 41.559C34.7915 42.5864 36.1877 43.1633 37.6433 43.1633Z" stroke="#DCB035" stroke-width="3.5" stroke-miterlimit="10" stroke-linecap="square"/>
<path d="M8.35645 17.5567H12.0173" stroke="#DCB035" stroke-width="3.5" stroke-miterlimit="10"/>
<path d="M8.35645 24.8783H12.0173" stroke="#DCB035" stroke-width="3.5" stroke-miterlimit="10"/>
<path d="M8.35645 32.2H12.0173" stroke="#DCB035" stroke-width="3.5" stroke-miterlimit="10"/>
<path d="M35.8034 19.3775H43.1251V37.6816C43.0423 39.0819 42.4277 40.3977 41.407 41.3599C40.3863 42.322 39.0366 42.8579 37.6338 42.8579C36.2311 42.8579 34.8814 42.322 33.8606 41.3599C32.8399 40.3977 32.2253 39.0819 32.1426 37.6816V19.3775H35.8034Z" stroke="#DCB035" stroke-width="3.5" stroke-miterlimit="10"/>
</svg>
