<svg width="50" height="50" viewBox="0 0 50 50" fill="none" xmlns="http://www.w3.org/2000/svg">
<path fill-rule="evenodd" clip-rule="evenodd" d="M10.6816 12.5C10.3688 11.2886 10.3325 10.0209 10.5771 8.7909C10.8445 7.44681 11.4392 6.1894 12.3086 5.13004C13.178 4.07069 14.2952 3.24209 15.5613 2.71765C16.8274 2.19321 18.2033 1.98912 19.5671 2.12344C20.931 2.25777 22.2405 2.72638 23.3801 3.48773C23.9814 3.88952 24.5255 4.36632 25.0003 4.90467C25.443 4.40279 25.9459 3.95423 26.4997 3.56998C27.6057 2.80265 28.881 2.31463 30.2166 2.14767C31.5524 1.98071 32.9084 2.13977 34.1693 2.61127C35.4301 3.08275 36.5578 3.85265 37.4562 4.85504C38.3545 5.85746 38.9968 7.06257 39.3278 8.36727C39.6589 9.67198 39.6689 11.0375 39.357 12.3469C39.3449 12.3981 39.3322 12.4491 39.3191 12.5H39.5837C43.0355 12.5 45.8337 15.2982 45.8337 18.75V20.8333C45.8337 23.5546 44.0945 25.8698 41.667 26.7277V41.6666C41.667 45.1185 38.8689 47.9166 35.417 47.9166H14.5837C11.1319 47.9166 8.33366 45.1185 8.33366 41.6666V26.7277C5.90618 25.8698 4.16699 23.5546 4.16699 20.8333V18.75C4.16699 15.2982 6.96522 12.5 10.417 12.5H10.6816ZM22.402 8.46479C22.7228 9.06498 22.9168 9.73498 22.917 10.4155V12.5H15.172C15.0108 12.2231 14.8817 11.9275 14.788 11.6186C14.5904 10.967 14.5565 10.2767 14.6893 9.60886C14.8221 8.94102 15.1176 8.31625 15.5496 7.78988C15.9816 7.26352 16.5367 6.85182 17.1658 6.59123C17.7949 6.33065 18.4785 6.22925 19.1562 6.29598C19.8338 6.36273 20.4846 6.59557 21.0507 6.97388C21.617 7.35217 22.0809 7.86425 22.402 8.46479ZM27.0837 43.75H35.417C36.5676 43.75 37.5003 42.8173 37.5003 41.6666V27.0833H27.0837V43.75ZM22.917 27.0833V43.75H14.5837C13.4331 43.75 12.5003 42.8173 12.5003 41.6666V27.0833H22.917ZM27.0837 22.9166H39.5837C40.7343 22.9166 41.667 21.9839 41.667 20.8333V18.75C41.667 17.5994 40.7343 16.6666 39.5837 16.6666H27.0837V22.9166ZM22.917 16.6666V22.9166H10.417C9.26641 22.9166 8.33366 21.9839 8.33366 20.8333V18.75C8.33366 17.5994 9.26641 16.6666 10.417 16.6666H22.917ZM27.0837 12.5H34.8287C35.0322 12.1505 35.1841 11.7719 35.2782 11.3757C35.4332 10.7251 35.4282 10.0466 35.2639 9.39838C35.0993 8.75011 34.7803 8.15132 34.3339 7.65325C33.8874 7.15517 33.3272 6.77265 32.7007 6.53838C32.0743 6.30411 31.4003 6.22507 30.7368 6.30802C30.073 6.39098 29.4395 6.63346 28.8899 7.01473C28.3403 7.396 27.8914 7.90471 27.5814 8.49734C27.2718 9.08936 27.0839 9.74852 27.0837 10.4166V12.5Z" fill="#DCB035"/>
</svg>
