<svg width="46" height="46" viewBox="0 0 46 46" fill="none" xmlns="http://www.w3.org/2000/svg">
<path d="M28.75 12.4583H22.0417C21.2792 12.4583 20.5479 12.7612 20.0087 13.3004C19.4696 13.8395 19.1667 14.5708 19.1667 15.3333C19.1667 16.0958 19.4696 16.8271 20.0087 17.3662C20.5479 17.9054 21.2792 18.2083 22.0417 18.2083H23.9583C24.7208 18.2083 25.4521 18.5112 25.9913 19.0504C26.5304 19.5895 26.8333 20.3208 26.8333 21.0833C26.8333 21.8458 26.5304 22.5771 25.9913 23.1162C25.4521 23.6554 24.7208 23.9583 23.9583 23.9583H17.25" stroke="#DCB035" stroke-width="3.5" stroke-miterlimit="10"/>
<path d="M23 27.7916V23.9583" stroke="#DCB035" stroke-width="3.5" stroke-miterlimit="10"/>
<path d="M23 12.4583V8.625" stroke="#DCB035" stroke-width="3.5" stroke-miterlimit="10"/>
<path d="M5.75 25.875L23 43.125L40.25 25.875H34.5V2.875H11.5V25.875H5.75Z" stroke="#DCB035" stroke-width="3.5" stroke-miterlimit="10"/>
</svg>
