<svg width="50" height="50" viewBox="0 0 50 50" fill="none" xmlns="http://www.w3.org/2000/svg">
<path d="M39.5831 2.08333C39.5831 0.932739 40.5158 0 41.6665 0C42.8171 0 43.7498 0.932739 43.7498 2.08333V3.30379L46.3975 0.656029C47.2111 -0.157564 48.5302 -0.157561 49.3438 0.656031C50.1575 1.46962 50.1575 2.78871 49.3438 3.60231L46.6961 6.25H47.9165C49.0671 6.25 49.9998 7.18275 49.9998 8.33333C49.9998 9.48392 49.0671 10.4167 47.9165 10.4167H42.5294L26.4617 26.4844C25.6481 27.2979 24.329 27.2979 23.5154 26.4844C22.7019 25.6708 22.7019 24.3517 23.5154 23.5381L39.5831 7.47046V2.08333Z" fill="#DCB035"/>
<path d="M36.2338 7.8939C37.1538 6.97394 37.0157 5.43904 35.8709 4.82098C32.6361 3.07458 28.9336 2.08331 24.9997 2.08331C12.3432 2.08331 2.08301 12.3435 2.08301 25C2.08301 37.6564 12.3432 47.9166 24.9997 47.9166C37.6561 47.9166 47.9163 37.6564 47.9163 25C47.9163 21.0737 46.9291 17.3782 45.189 14.1479C44.5718 13.0019 43.0359 12.863 42.1153 13.7834L42.053 13.8458C41.3651 14.5336 41.2563 15.6007 41.6997 16.4666C43.0103 19.0262 43.7497 21.9269 43.7497 25C43.7497 35.3554 35.3551 43.75 24.9997 43.75C14.6443 43.75 6.24967 35.3554 6.24967 25C6.24967 14.6446 14.6443 6.24998 24.9997 6.24998C28.0793 6.24998 30.9855 6.99244 33.549 8.30813C34.4153 8.75267 35.4834 8.64433 36.172 7.9559L36.2338 7.8939Z" fill="#DCB035"/>
<path d="M29.9793 14.1492C30.9639 13.1646 30.7162 11.5068 29.3882 11.0884C28.0035 10.652 26.5293 10.4167 25.0003 10.4167C16.9462 10.4167 10.417 16.9459 10.417 25C10.417 33.0542 16.9462 39.5834 25.0003 39.5834C33.0545 39.5834 39.5837 33.0542 39.5837 25C39.5837 23.4796 39.351 22.0134 38.9193 20.6352C38.5026 19.3054 36.8432 19.0562 35.858 20.0416L35.6657 20.2339C35.0799 20.8195 34.9159 21.6925 35.1143 22.4967C35.312 23.2986 35.417 24.1371 35.417 25C35.417 30.7529 30.7532 35.4167 25.0003 35.4167C19.2474 35.4167 14.5837 30.7529 14.5837 25C14.5837 19.2471 19.2474 14.5834 25.0003 14.5834C25.8695 14.5834 26.7139 14.6898 27.5212 14.8904C28.3264 15.0906 29.2016 14.927 29.7882 14.3402L29.9793 14.1492Z" fill="#DCB035"/>
<path d="M23.0792 19.0653C23.9321 18.7809 24.3612 19.7669 23.7254 20.4027L22.0473 22.081C20.422 23.7062 20.422 26.3412 22.0473 27.9665C23.6725 29.5917 26.3075 29.5917 27.9327 27.9665L29.5898 26.3094C30.2269 25.6723 31.2129 26.1044 30.9227 26.9577C30.0854 29.4185 27.7365 31.25 25 31.25C21.5481 31.25 18.75 28.4519 18.75 25C18.75 22.2492 20.6006 19.8917 23.0792 19.0653Z" fill="#DCB035"/>
</svg>
