<svg width="30" height="31" viewBox="0 0 30 31" fill="none" xmlns="http://www.w3.org/2000/svg">
<path d="M25.7708 0.875H4.22917C2.06605 0.875 0.3125 2.62109 0.3125 4.775V26.225C0.3125 28.3789 2.06605 30.125 4.22917 30.125H25.7708C27.9339 30.125 29.6875 28.3789 29.6875 26.225V4.775C29.6875 2.62109 27.9339 0.875 25.7708 0.875Z" fill="#1C89DA"/>
<path d="M22.8051 8.74004C23.3464 8.73453 23.714 9.17783 23.5939 9.70204C22.7108 13.5924 21.8259 17.4846 20.9393 21.3749C20.7786 22.0756 20.1394 22.3297 19.5372 21.9268C18.3901 21.1597 17.2503 20.3835 16.105 19.6128C15.9129 19.484 15.7041 19.2541 15.5213 19.2688C15.3365 19.2854 15.1703 19.5466 15.0003 19.7048C14.5089 20.1628 14.0231 20.6263 13.5317 21.0843C13.0385 21.5442 12.4733 21.4044 12.2553 20.768C11.8027 19.4509 11.3501 18.1339 10.9068 16.815C10.8403 16.6164 10.7442 16.5115 10.5336 16.4582C9.31996 16.14 8.11185 15.8052 6.90189 15.4778C6.51027 15.3711 6.31815 15.1191 6.40314 14.8138C6.46779 14.5802 6.65067 14.4808 6.86309 14.4054C9.05582 13.6218 11.2467 12.8364 13.4375 12.0491C16.4209 10.9786 19.4042 9.90622 22.3876 8.8357C22.5223 8.78786 22.6591 8.74371 22.8051 8.74004Z" fill="#FEFEFE"/>
<path d="M11.4943 16.4436C11.4759 16.199 11.6144 16.107 11.7696 16.0187C12.9371 15.3547 14.1027 14.6888 15.2702 14.023C16.8865 13.0996 18.5047 12.1762 20.1211 11.2528C20.1747 11.2216 20.2301 11.1885 20.2855 11.1609C20.389 11.1094 20.4942 11.091 20.5737 11.2013C20.6605 11.3246 20.5681 11.4018 20.485 11.4699C19.9936 11.8727 19.5004 12.2737 19.0072 12.6747C17.1174 14.2124 15.2295 15.752 13.3361 17.2843C13.1606 17.4259 13.0848 17.5859 13.0627 17.8067C12.9943 18.4725 12.9093 19.1365 12.8262 19.8006C12.8188 19.8631 12.841 19.9643 12.7468 19.9772C12.6489 19.9919 12.647 19.8944 12.6267 19.83C12.2572 18.7392 11.8897 17.6485 11.522 16.5577C11.5054 16.508 11.4999 16.4528 11.4962 16.44L11.4943 16.4436Z" fill="#1C89DA"/>
</svg>
