<svg width="30" height="30" viewBox="0 0 30 30" fill="none" xmlns="http://www.w3.org/2000/svg">
<path d="M21.7614 29.875H27.4689C28.5584 29.875 29.875 28.9705 29.875 27.8466V2.15341C29.875 1.02955 28.5584 0.125 27.4689 0.125H1.77573C0.556773 0.125 0.125 1.21712 0.125 2.15341V27.8466C0.125 28.7829 0.556773 29.875 1.77573 29.875H16.3523V19.0568H11.6193C11.2455 19.0568 10.9432 18.7545 10.9432 18.3807V14.3239C10.9432 13.9501 11.2455 13.6477 11.6193 13.6477H16.3523V8.9148C16.3523 5.61593 19.276 2.82959 22.7359 2.82959H26.4943C26.8681 2.82959 27.1705 3.13194 27.1705 3.50571V7.5625C27.1705 7.9363 26.8681 8.23868 26.4943 8.23868H24.0882C22.9446 8.23868 21.7614 8.87127 21.7614 9.92899V13.6477H26.1166C26.2238 13.6476 26.3294 13.6731 26.4248 13.722C26.5201 13.7709 26.6024 13.8419 26.6647 13.929C26.7928 14.1047 26.8271 14.3319 26.7585 14.5379L25.4062 18.5947C25.3611 18.7292 25.2749 18.8462 25.1597 18.9291C25.0445 19.0121 24.9062 19.0567 24.7643 19.0568H21.7614V29.875Z" fill="#2577FF"/>
</svg>
