<svg width="188" height="44" viewBox="0 0 188 44" fill="none" xmlns="http://www.w3.org/2000/svg">
<mask id="path-1-outside-1_136_468" maskUnits="userSpaceOnUse" x="0" y="7" width="168" height="31" fill="black">
<rect fill="white" y="7" width="168" height="31"/>
<path d="M14.4119 13.5455H18.571V25.6136C18.5653 26.7443 18.2955 27.733 17.7614 28.5795C17.2273 29.4205 16.4886 30.0739 15.5455 30.5398C14.608 31.0057 13.5227 31.2386 12.2898 31.2386C11.1989 31.2386 10.2074 31.0483 9.31534 30.6676C8.42898 30.2869 7.72159 29.696 7.19318 28.8949C6.67045 28.0937 6.41193 27.0682 6.41761 25.8182H10.6193C10.6364 26.267 10.7216 26.6506 10.875 26.9688C11.0341 27.2812 11.2528 27.517 11.5312 27.6761C11.8097 27.8352 12.142 27.9148 12.5284 27.9148C12.9318 27.9148 13.2727 27.8295 13.5511 27.6591C13.8295 27.483 14.0398 27.2244 14.1818 26.8835C14.3295 26.5426 14.4063 26.1193 14.4119 25.6136V13.5455ZM42.8191 13.5455H47.0293V24.804C47.0293 26.1051 46.7197 27.2386 46.1004 28.2045C45.4811 29.1648 44.6174 29.9091 43.5095 30.4375C42.4015 30.9602 41.1146 31.2216 39.6487 31.2216C38.1657 31.2216 36.8703 30.9602 35.7623 30.4375C34.6543 29.9091 33.7936 29.1648 33.1799 28.2045C32.5663 27.2386 32.2595 26.1051 32.2595 24.804V13.5455H36.4782V24.4375C36.4782 25.0398 36.6089 25.5767 36.8703 26.0483C37.1373 26.5199 37.5095 26.8892 37.9867 27.1562C38.464 27.4233 39.018 27.5568 39.6487 27.5568C40.2793 27.5568 40.8305 27.4233 41.3021 27.1562C41.7793 26.8892 42.1515 26.5199 42.4186 26.0483C42.6856 25.5767 42.8191 25.0398 42.8191 24.4375V13.5455ZM67.1652 31H60.7135V13.5455H67.1567C68.9351 13.5455 70.4664 13.8949 71.7505 14.5938C73.0402 15.2869 74.0345 16.2869 74.7334 17.5938C75.4323 18.8949 75.7817 20.4517 75.7817 22.2642C75.7817 24.0824 75.4323 25.6449 74.7334 26.9517C74.0402 28.2585 73.0488 29.2614 71.759 29.9602C70.4692 30.6534 68.938 31 67.1652 31ZM64.9323 27.4034H67.0033C67.9806 27.4034 68.8073 27.2386 69.4834 26.9091C70.1652 26.5739 70.6794 26.0312 71.026 25.2812C71.3783 24.5256 71.5544 23.5199 71.5544 22.2642C71.5544 21.0085 71.3783 20.0085 71.026 19.2642C70.6738 18.5142 70.1539 17.9744 69.4664 17.6449C68.7845 17.3097 67.9436 17.142 66.9436 17.142H64.9323V27.4034ZM87.9169 16.9716V13.5455H102.67V16.9716H97.3771V31H93.218V16.9716H87.9169ZM115.77 31V13.5455H127.941V16.9716H119.989V20.5511H127.318V23.9858H119.989V27.5739H127.941V31H115.77ZM141.623 13.5455H146.847L151.279 24.3523H151.483L155.915 13.5455H161.14V31H157.032V20.2784H156.887L152.694 30.8892H150.069L145.875 20.2188H145.731V31H141.623V13.5455Z"/>
</mask>
<path d="M14.4119 13.5455H18.571V25.6136C18.5653 26.7443 18.2955 27.733 17.7614 28.5795C17.2273 29.4205 16.4886 30.0739 15.5455 30.5398C14.608 31.0057 13.5227 31.2386 12.2898 31.2386C11.1989 31.2386 10.2074 31.0483 9.31534 30.6676C8.42898 30.2869 7.72159 29.696 7.19318 28.8949C6.67045 28.0937 6.41193 27.0682 6.41761 25.8182H10.6193C10.6364 26.267 10.7216 26.6506 10.875 26.9688C11.0341 27.2812 11.2528 27.517 11.5312 27.6761C11.8097 27.8352 12.142 27.9148 12.5284 27.9148C12.9318 27.9148 13.2727 27.8295 13.5511 27.6591C13.8295 27.483 14.0398 27.2244 14.1818 26.8835C14.3295 26.5426 14.4063 26.1193 14.4119 25.6136V13.5455ZM42.8191 13.5455H47.0293V24.804C47.0293 26.1051 46.7197 27.2386 46.1004 28.2045C45.4811 29.1648 44.6174 29.9091 43.5095 30.4375C42.4015 30.9602 41.1146 31.2216 39.6487 31.2216C38.1657 31.2216 36.8703 30.9602 35.7623 30.4375C34.6543 29.9091 33.7936 29.1648 33.1799 28.2045C32.5663 27.2386 32.2595 26.1051 32.2595 24.804V13.5455H36.4782V24.4375C36.4782 25.0398 36.6089 25.5767 36.8703 26.0483C37.1373 26.5199 37.5095 26.8892 37.9867 27.1562C38.464 27.4233 39.018 27.5568 39.6487 27.5568C40.2793 27.5568 40.8305 27.4233 41.3021 27.1562C41.7793 26.8892 42.1515 26.5199 42.4186 26.0483C42.6856 25.5767 42.8191 25.0398 42.8191 24.4375V13.5455ZM67.1652 31H60.7135V13.5455H67.1567C68.9351 13.5455 70.4664 13.8949 71.7505 14.5938C73.0402 15.2869 74.0345 16.2869 74.7334 17.5938C75.4323 18.8949 75.7817 20.4517 75.7817 22.2642C75.7817 24.0824 75.4323 25.6449 74.7334 26.9517C74.0402 28.2585 73.0488 29.2614 71.759 29.9602C70.4692 30.6534 68.938 31 67.1652 31ZM64.9323 27.4034H67.0033C67.9806 27.4034 68.8073 27.2386 69.4834 26.9091C70.1652 26.5739 70.6794 26.0312 71.026 25.2812C71.3783 24.5256 71.5544 23.5199 71.5544 22.2642C71.5544 21.0085 71.3783 20.0085 71.026 19.2642C70.6738 18.5142 70.1539 17.9744 69.4664 17.6449C68.7845 17.3097 67.9436 17.142 66.9436 17.142H64.9323V27.4034ZM87.9169 16.9716V13.5455H102.67V16.9716H97.3771V31H93.218V16.9716H87.9169ZM115.77 31V13.5455H127.941V16.9716H119.989V20.5511H127.318V23.9858H119.989V27.5739H127.941V31H115.77ZM141.623 13.5455H146.847L151.279 24.3523H151.483L155.915 13.5455H161.14V31H157.032V20.2784H156.887L152.694 30.8892H150.069L145.875 20.2188H145.731V31H141.623V13.5455Z" fill="black"/>
<path d="M14.4119 13.5455V7.54545H8.41193V13.5455H14.4119ZM18.571 13.5455H24.571V7.54545H18.571V13.5455ZM18.571 25.6136L24.5709 25.6438L24.571 25.6287V25.6136H18.571ZM17.7614 28.5795L22.8261 31.7964L22.831 31.7887L22.8359 31.7809L17.7614 28.5795ZM15.5455 30.5398L12.8881 25.1603L12.8817 25.1635L12.8752 25.1667L15.5455 30.5398ZM9.31534 30.6676L6.94755 36.1807L6.96031 36.1861L9.31534 30.6676ZM7.19318 28.8949L2.16823 32.1736L2.17636 32.186L2.18455 32.1985L7.19318 28.8949ZM6.41761 25.8182V19.8182H0.444824L0.417675 25.7909L6.41761 25.8182ZM10.6193 25.8182L16.615 25.5905L16.3958 19.8182H10.6193V25.8182ZM10.875 26.9688L5.47039 29.5745L5.49858 29.633L5.52802 29.6908L10.875 26.9688ZM11.5312 27.6761L14.5081 22.4667L14.5081 22.4667L11.5312 27.6761ZM13.5511 27.6591L16.6841 32.7762L16.7217 32.7532L16.759 32.7296L13.5511 27.6591ZM14.1818 26.8835L8.67649 24.4979L8.65965 24.5367L8.64336 24.5758L14.1818 26.8835ZM14.4119 25.6136L20.4116 25.681L20.4119 25.6473V25.6136H14.4119ZM14.4119 13.5455V19.5455H18.571V13.5455V7.54545H14.4119V13.5455ZM18.571 13.5455H12.571V25.6136H18.571H24.571V13.5455H18.571ZM18.571 25.6136L12.5711 25.5835C12.5706 25.6785 12.5598 25.6829 12.5761 25.623C12.5841 25.5941 12.5969 25.5554 12.6166 25.5104C12.6364 25.4653 12.6602 25.4204 12.6868 25.3782L17.7614 28.5795L22.8359 31.7809C24.0441 29.8658 24.5604 27.7479 24.5709 25.6438L18.571 25.6136ZM17.7614 28.5795L12.6966 25.3627C12.7279 25.3134 12.7752 25.256 12.8314 25.2063C12.8859 25.1581 12.9148 25.1472 12.8881 25.1603L15.5455 30.5398L18.2028 35.9192C20.0738 34.995 21.6693 33.6178 22.8261 31.7964L17.7614 28.5795ZM15.5455 30.5398L12.8752 25.1667C12.9027 25.1531 12.76 25.2386 12.2898 25.2386V31.2386V37.2386C14.2854 37.2386 16.3132 36.8583 18.2157 35.9128L15.5455 30.5398ZM12.2898 31.2386V25.2386C11.9074 25.2386 11.7304 25.1747 11.6704 25.1491L9.31534 30.6676L6.96031 36.1861C8.68438 36.9219 10.4903 37.2386 12.2898 37.2386V31.2386ZM9.31534 30.6676L11.6831 25.1546C11.7493 25.183 11.8536 25.2397 11.9666 25.3341C12.0798 25.4287 12.1575 25.5241 12.2018 25.5913L7.19318 28.8949L2.18455 32.1985C3.36201 33.9836 4.98987 35.3399 6.94756 36.1807L9.31534 30.6676ZM7.19318 28.8949L12.2181 25.6162C12.3558 25.8272 12.4093 25.9949 12.4252 26.0583C12.439 26.1128 12.4166 26.0553 12.4176 25.8455L6.41761 25.8182L0.417675 25.7909C0.408272 27.8597 0.834412 30.1294 2.16823 32.1736L7.19318 28.8949ZM6.41761 25.8182V31.8182H10.6193V25.8182V19.8182H6.41761V25.8182ZM10.6193 25.8182L4.62364 26.0459C4.66382 27.1038 4.87524 28.3402 5.47039 29.5745L10.875 26.9688L16.2796 24.363C16.5679 24.961 16.6089 25.4303 16.615 25.5905L10.6193 25.8182ZM10.875 26.9688L5.52802 29.6908C6.16608 30.9442 7.16573 32.0921 8.55442 32.8856L11.5312 27.6761L14.5081 22.4667C15.34 22.942 15.9021 23.6183 16.222 24.2467L10.875 26.9688ZM11.5312 27.6761L8.55442 32.8856C9.90849 33.6593 11.3116 33.9148 12.5284 33.9148V27.9148V21.9148C12.9725 21.9148 13.7108 22.0111 14.5081 22.4667L11.5312 27.6761ZM12.5284 27.9148V33.9148C13.7776 33.9148 15.2632 33.6461 16.6841 32.7762L13.5511 27.6591L10.4182 22.542C11.2823 22.013 12.086 21.9148 12.5284 21.9148V27.9148ZM13.5511 27.6591L16.759 32.7296C18.2039 31.8154 19.1636 30.5272 19.7203 29.1912L14.1818 26.8835L8.64336 24.5758C8.91592 23.9217 9.45519 23.1505 10.3433 22.5886L13.5511 27.6591ZM14.1818 26.8835L19.6872 29.2692C20.2445 27.983 20.3999 26.7141 20.4116 25.681L14.4119 25.6136L8.41231 25.5462C8.41255 25.5246 8.41462 25.1022 8.67649 24.4979L14.1818 26.8835ZM14.4119 25.6136H20.4119V13.5455H14.4119H8.41193V25.6136H14.4119ZM42.8191 13.5455V7.54545H36.8191V13.5455H42.8191ZM47.0293 13.5455H53.0293V7.54545H47.0293V13.5455ZM46.1004 28.2045L51.1426 31.4566L51.147 31.4499L51.1513 31.4431L46.1004 28.2045ZM43.5095 30.4375L46.0696 35.8639L46.081 35.8585L46.0923 35.8531L43.5095 30.4375ZM35.7623 30.4375L33.1795 35.8531L33.1908 35.8585L33.2022 35.8639L35.7623 30.4375ZM33.1799 28.2045L28.1155 31.4219L28.1198 31.4287L28.1241 31.4355L33.1799 28.2045ZM32.2595 13.5455V7.54545H26.2595V13.5455H32.2595ZM36.4782 13.5455H42.4782V7.54545H36.4782V13.5455ZM36.8703 26.0483L31.6223 28.9568L31.6357 28.9808L31.6492 29.0048L36.8703 26.0483ZM37.9867 27.1562L40.9165 21.9202L40.9165 21.9202L37.9867 27.1562ZM41.3021 27.1562L38.3724 21.9202L38.359 21.9277L38.3456 21.9352L41.3021 27.1562ZM42.8191 13.5455V19.5455H47.0293V13.5455V7.54545H42.8191V13.5455ZM47.0293 13.5455H41.0293V24.804H47.0293H53.0293V13.5455H47.0293ZM47.0293 24.804H41.0293C41.0293 24.8912 41.0242 24.9526 41.0192 24.9914C41.0144 25.0297 41.0095 25.0476 41.0092 25.0488C41.009 25.0497 41.0119 25.0391 41.02 25.0208C41.0281 25.0024 41.0384 24.9833 41.0494 24.966L46.1004 28.2045L51.1513 31.4431C52.4705 29.3856 53.0293 27.095 53.0293 24.804H47.0293ZM46.1004 28.2045L41.0582 24.9525C41.0568 24.9546 41.0586 24.9515 41.0634 24.946C41.0682 24.9405 41.0716 24.9376 41.0711 24.938C41.0705 24.9385 41.0616 24.9462 41.0405 24.9598C41.0192 24.9735 40.9827 24.9951 40.9266 25.0219L43.5095 30.4375L46.0923 35.8531C48.1272 34.8826 49.875 33.4219 51.1426 31.4566L46.1004 28.2045ZM43.5095 30.4375L40.9493 25.0111C40.784 25.0891 40.401 25.2216 39.6487 25.2216V31.2216V37.2216C41.8281 37.2216 44.019 36.8313 46.0696 35.8639L43.5095 30.4375ZM39.6487 31.2216V25.2216C38.8677 25.2216 38.4791 25.085 38.3224 25.0111L35.7623 30.4375L33.2022 35.8639C35.2614 36.8354 37.4637 37.2216 39.6487 37.2216V31.2216ZM35.7623 30.4375L38.3451 25.0219C38.29 24.9956 38.2547 24.9746 38.2351 24.9619C38.2157 24.9494 38.2087 24.9431 38.2102 24.9444C38.2118 24.9458 38.2174 24.9509 38.2244 24.959C38.2276 24.9627 38.2303 24.9661 38.2325 24.969C38.2335 24.9704 38.2343 24.9715 38.2349 24.9724C38.2354 24.9732 38.2357 24.9736 38.2357 24.9736L33.1799 28.2045L28.1241 31.4355C29.3884 33.4139 31.1405 34.8807 33.1795 35.8531L35.7623 30.4375ZM33.1799 28.2045L38.2443 24.9871C38.2551 25.0041 38.2648 25.0224 38.2723 25.0395C38.2797 25.0564 38.282 25.0653 38.2812 25.0623C38.2801 25.0583 38.2595 24.9815 38.2595 24.804H32.2595H26.2595C26.2595 27.0844 26.8102 29.3673 28.1155 31.4219L33.1799 28.2045ZM32.2595 24.804H38.2595V13.5455H32.2595H26.2595V24.804H32.2595ZM32.2595 13.5455V19.5455H36.4782V13.5455V7.54545H32.2595V13.5455ZM36.4782 13.5455H30.4782V24.4375H36.4782H42.4782V13.5455H36.4782ZM36.4782 24.4375H30.4782C30.4782 25.936 30.812 27.4947 31.6223 28.9568L36.8703 26.0483L42.1182 23.1398C42.4058 23.6587 42.4782 24.1436 42.4782 24.4375H36.4782ZM36.8703 26.0483L31.6492 29.0048C32.4623 30.4407 33.6311 31.5945 35.057 32.3923L37.9867 27.1562L40.9165 21.9202C41.3879 22.1839 41.8123 22.5991 42.0913 23.0918L36.8703 26.0483ZM37.9867 27.1562L35.057 32.3923C36.5586 33.2325 38.151 33.5568 39.6487 33.5568V27.5568V21.5568C39.885 21.5568 40.3695 21.6141 40.9165 21.9202L37.9867 27.1562ZM39.6487 27.5568V33.5568C41.1444 33.5568 42.7472 33.2331 44.2586 32.3773L41.3021 27.1562L38.3456 21.9352C38.9138 21.6135 39.4143 21.5568 39.6487 21.5568V27.5568ZM41.3021 27.1562L44.2318 32.3923C45.6577 31.5945 46.8265 30.4407 47.6396 29.0048L42.4186 26.0483L37.1975 23.0918C37.4765 22.5991 37.901 22.1839 38.3724 21.9202L41.3021 27.1562ZM42.4186 26.0483L47.6396 29.0048C48.4724 27.5341 48.8191 25.9581 48.8191 24.4375H42.8191H36.8191C36.8191 24.1215 36.8988 23.6193 37.1975 23.0918L42.4186 26.0483ZM42.8191 24.4375H48.8191V13.5455H42.8191H36.8191V24.4375H42.8191ZM60.7135 31H54.7135V37H60.7135V31ZM60.7135 13.5455V7.54545H54.7135V13.5455H60.7135ZM71.7505 14.5938L68.8822 19.8638L68.8961 19.8713L68.91 19.8788L71.7505 14.5938ZM74.7334 17.5938L69.4425 20.4233L69.4476 20.4328L74.7334 17.5938ZM74.7334 26.9517L69.4425 24.1222L69.4377 24.1312L69.4329 24.1401L74.7334 26.9517ZM71.759 29.9602L74.5994 35.2453L74.6084 35.2404L74.6174 35.2356L71.759 29.9602ZM64.9323 27.4034H58.9323V33.4034H64.9323V27.4034ZM69.4834 26.9091L72.1122 32.3026L72.1215 32.298L72.1307 32.2935L69.4834 26.9091ZM71.026 25.2812L65.5879 22.7462L65.5837 22.7552L65.5795 22.7643L71.026 25.2812ZM71.026 19.2642L65.5952 21.815L65.599 21.823L65.6028 21.8309L71.026 19.2642ZM69.4664 17.6449L66.819 23.0293L66.8459 23.0425L66.8729 23.0554L69.4664 17.6449ZM64.9323 17.142V11.142H58.9323V17.142H64.9323ZM67.1652 31V25H60.7135V31V37H67.1652V31ZM60.7135 31H66.7135V13.5455H60.7135H54.7135V31H60.7135ZM60.7135 13.5455V19.5455H67.1567V13.5455V7.54545H60.7135V13.5455ZM67.1567 13.5455V19.5455C68.1482 19.5455 68.6496 19.7372 68.8822 19.8638L71.7505 14.5938L74.6187 9.32371C72.2831 8.05258 69.722 7.54545 67.1567 7.54545V13.5455ZM71.7505 14.5938L68.91 19.8788C69.1457 20.0055 69.2937 20.145 69.4425 20.4232L74.7334 17.5938L80.0243 14.7643C78.7754 12.4289 76.9348 10.5684 74.5909 9.30868L71.7505 14.5938ZM74.7334 17.5938L69.4476 20.4328C69.5826 20.6842 69.7817 21.2201 69.7817 22.2642H75.7817H81.7817C81.7817 19.6833 81.2819 17.1056 80.0192 14.7547L74.7334 17.5938ZM75.7817 22.2642H69.7817C69.7817 23.3165 69.5816 23.862 69.4425 24.1222L74.7334 26.9517L80.0243 29.7812C81.2829 27.4277 81.7817 24.8483 81.7817 22.2642H75.7817ZM74.7334 26.9517L69.4329 24.1401C69.2884 24.4125 69.1422 24.5539 68.9005 24.6849L71.759 29.9602L74.6174 35.2356C76.9553 33.9688 78.792 32.1045 80.0339 29.7633L74.7334 26.9517ZM71.759 29.9602L68.9185 24.6752C68.6679 24.8099 68.1539 25 67.1652 25V31V37C69.722 37 72.2705 36.497 74.5994 35.2453L71.759 29.9602ZM64.9323 27.4034V33.4034H67.0033V27.4034V21.4034H64.9323V27.4034ZM67.0033 27.4034V33.4034C68.629 33.4034 70.4101 33.1322 72.1122 32.3026L69.4834 26.9091L66.8547 21.5156C67.0306 21.4298 67.1523 21.4018 67.1835 21.3956C67.2116 21.39 67.1588 21.4034 67.0033 21.4034V27.4034ZM69.4834 26.9091L72.1307 32.2935C74.1573 31.2971 75.603 29.6799 76.4726 27.7982L71.026 25.2812L65.5795 22.7643C65.6514 22.6087 65.7888 22.3732 66.0253 22.1236C66.2664 21.8692 66.5483 21.6662 66.8361 21.5247L69.4834 26.9091ZM71.026 25.2812L76.4642 27.8163C77.3257 25.9682 77.5544 23.9925 77.5544 22.2642H71.5544H65.5544C65.5544 22.6207 65.5287 22.8313 65.5123 22.9251C65.4955 23.0208 65.4984 22.9381 65.5879 22.7462L71.026 25.2812ZM71.5544 22.2642H77.5544C77.5544 20.5431 77.328 18.554 76.4493 16.6975L71.026 19.2642L65.6028 21.8309C65.5035 21.6213 65.4975 21.5238 65.5133 21.6132C65.5286 21.7004 65.5544 21.9071 65.5544 22.2642H71.5544ZM71.026 19.2642L76.4568 16.7134C75.5713 14.828 74.1056 13.215 72.0598 12.2344L69.4664 17.6449L66.8729 23.0554C66.5821 22.9161 66.296 22.7142 66.0504 22.4592C65.8094 22.209 65.6689 21.9719 65.5952 21.815L71.026 19.2642ZM69.4664 17.6449L72.1137 12.2605C70.3902 11.4131 68.5832 11.142 66.9436 11.142V17.142V23.142C67.113 23.142 67.1746 23.1566 67.1514 23.152C67.1252 23.1468 67.0013 23.1189 66.819 23.0293L69.4664 17.6449ZM66.9436 17.142V11.142H64.9323V17.142V23.142H66.9436V17.142ZM64.9323 17.142H58.9323V27.4034H64.9323H70.9323V17.142H64.9323ZM87.9169 16.9716H81.9169V22.9716H87.9169V16.9716ZM87.9169 13.5455V7.54545H81.9169V13.5455H87.9169ZM102.67 13.5455H108.67V7.54545H102.67V13.5455ZM102.67 16.9716V22.9716H108.67V16.9716H102.67ZM97.3771 16.9716V10.9716H91.3771V16.9716H97.3771ZM97.3771 31V37H103.377V31H97.3771ZM93.218 31H87.218V37H93.218V31ZM93.218 16.9716H99.218V10.9716H93.218V16.9716ZM87.9169 16.9716H93.9169V13.5455H87.9169H81.9169V16.9716H87.9169ZM87.9169 13.5455V19.5455H102.67V13.5455V7.54545H87.9169V13.5455ZM102.67 13.5455H96.6697V16.9716H102.67H108.67V13.5455H102.67ZM102.67 16.9716V10.9716H97.3771V16.9716V22.9716H102.67V16.9716ZM97.3771 16.9716H91.3771V31H97.3771H103.377V16.9716H97.3771ZM97.3771 31V25H93.218V31V37H97.3771V31ZM93.218 31H99.218V16.9716H93.218H87.218V31H93.218ZM93.218 16.9716V10.9716H87.9169V16.9716V22.9716H93.218V16.9716ZM115.77 31H109.77V37H115.77V31ZM115.77 13.5455V7.54545H109.77V13.5455H115.77ZM127.941 13.5455H133.941V7.54545H127.941V13.5455ZM127.941 16.9716V22.9716H133.941V16.9716H127.941ZM119.989 16.9716V10.9716H113.989V16.9716H119.989ZM119.989 20.5511H113.989V26.5511H119.989V20.5511ZM127.318 20.5511H133.318V14.5511H127.318V20.5511ZM127.318 23.9858V29.9858H133.318V23.9858H127.318ZM119.989 23.9858V17.9858H113.989V23.9858H119.989ZM119.989 27.5739H113.989V33.5739H119.989V27.5739ZM127.941 27.5739H133.941V21.5739H127.941V27.5739ZM127.941 31V37H133.941V31H127.941ZM115.77 31H121.77V13.5455H115.77H109.77V31H115.77ZM115.77 13.5455V19.5455H127.941V13.5455V7.54545H115.77V13.5455ZM127.941 13.5455H121.941V16.9716H127.941H133.941V13.5455H127.941ZM127.941 16.9716V10.9716H119.989V16.9716V22.9716H127.941V16.9716ZM119.989 16.9716H113.989V20.5511H119.989H125.989V16.9716H119.989ZM119.989 20.5511V26.5511H127.318V20.5511V14.5511H119.989V20.5511ZM127.318 20.5511H121.318V23.9858H127.318H133.318V20.5511H127.318ZM127.318 23.9858V17.9858H119.989V23.9858V29.9858H127.318V23.9858ZM119.989 23.9858H113.989V27.5739H119.989H125.989V23.9858H119.989ZM119.989 27.5739V33.5739H127.941V27.5739V21.5739H119.989V27.5739ZM127.941 27.5739H121.941V31H127.941H133.941V27.5739H127.941ZM127.941 31V25H115.77V31V37H127.941V31ZM141.623 13.5455V7.54545H135.623V13.5455H141.623ZM146.847 13.5455L152.398 11.2689L150.871 7.54545H146.847V13.5455ZM151.279 24.3523L145.728 26.6288L147.254 30.3523H151.279V24.3523ZM151.483 24.3523V30.3523H155.508L157.035 26.6288L151.483 24.3523ZM155.915 13.5455V7.54545H151.891L150.364 11.2689L155.915 13.5455ZM161.14 13.5455H167.14V7.54545H161.14V13.5455ZM161.14 31V37H167.14V31H161.14ZM157.032 31H151.032V37H157.032V31ZM157.032 20.2784H163.032V14.2784H157.032V20.2784ZM156.887 20.2784V14.2784H152.806L151.307 18.0733L156.887 20.2784ZM152.694 30.8892V36.8892H156.774L158.274 33.0943L152.694 30.8892ZM150.069 30.8892L144.484 33.0837L145.98 36.8892H150.069V30.8892ZM145.875 20.2188L151.46 18.0243L149.964 14.2188H145.875V20.2188ZM145.731 20.2188V14.2188H139.731V20.2188H145.731ZM145.731 31V37H151.731V31H145.731ZM141.623 31H135.623V37H141.623V31ZM141.623 13.5455V19.5455H146.847V13.5455V7.54545H141.623V13.5455ZM146.847 13.5455L141.296 15.822L145.728 26.6288L151.279 24.3523L156.83 22.0757L152.398 11.2689L146.847 13.5455ZM151.279 24.3523V30.3523H151.483V24.3523V18.3523H151.279V24.3523ZM151.483 24.3523L157.035 26.6288L161.467 15.822L155.915 13.5455L150.364 11.2689L145.932 22.0757L151.483 24.3523ZM155.915 13.5455V19.5455H161.14V13.5455V7.54545H155.915V13.5455ZM161.14 13.5455H155.14V31H161.14H167.14V13.5455H161.14ZM161.14 31V25H157.032V31V37H161.14V31ZM157.032 31H163.032V20.2784H157.032H151.032V31H157.032ZM157.032 20.2784V14.2784H156.887V20.2784V26.2784H157.032V20.2784ZM156.887 20.2784L151.307 18.0733L147.114 28.6841L152.694 30.8892L158.274 33.0943L162.467 22.4836L156.887 20.2784ZM152.694 30.8892V24.8892H150.069V30.8892V36.8892H152.694V30.8892ZM150.069 30.8892L155.653 28.6947L151.46 18.0243L145.875 20.2188L140.291 22.4132L144.484 33.0837L150.069 30.8892ZM145.875 20.2188V14.2188H145.731V20.2188V26.2188H145.875V20.2188ZM145.731 20.2188H139.731V31H145.731H151.731V20.2188H145.731ZM145.731 31V25H141.623V31V37H145.731V31ZM141.623 31H147.623V13.5455H141.623H135.623V31H141.623Z" fill="url(#paint0_linear_136_468)" mask="url(#path-1-outside-1_136_468)"/>
<mask id="path-3-outside-2_136_468" maskUnits="userSpaceOnUse" x="163.552" y="0.0584812" width="24.0297" height="43.0165" fill="black">
<rect fill="white" x="163.552" y="0.0584812" width="24.0297" height="43.0165"/>
<path d="M168.014 32.5544L182.559 32.5645L182.557 35.6398L170.931 35.6317L170.931 35.717L173.017 39.0494L170.289 39.0475L168.012 35.4451L168.014 32.5544ZM182.764 23.5252C182.759 24.2733 182.633 24.9953 182.387 25.6911C182.14 26.3823 181.739 27.0022 181.185 27.5511C180.631 28.1 179.896 28.5351 178.982 28.8564C178.068 29.173 176.946 29.3308 175.616 29.3299C174.394 29.3244 173.303 29.1839 172.342 28.9086C171.376 28.6286 170.557 28.2303 169.885 27.7138C169.213 27.1925 168.702 26.5695 168.352 25.8448C167.998 25.1201 167.821 24.308 167.821 23.4084C167.822 22.4377 168.012 21.5808 168.391 20.8377C168.766 20.0946 169.275 19.4984 169.92 19.049C170.564 18.5949 171.286 18.3208 172.086 18.2266L172.084 21.2593C171.578 21.3773 171.18 21.6256 170.891 22.0042C170.601 22.3828 170.457 22.8515 170.456 23.4102C170.456 24.3571 170.867 25.0771 171.691 25.5701C172.514 26.0584 173.634 26.3077 175.049 26.3182L175.05 26.2187C174.619 26.0006 174.252 25.7068 173.949 25.3373C173.642 24.963 173.408 24.5391 173.247 24.0655C173.082 23.5872 172.999 23.0829 173 22.5526C173 21.6908 173.204 20.9239 173.612 20.2518C174.015 19.5798 174.569 19.0498 175.275 18.6621C175.981 18.2743 176.788 18.0807 177.697 18.0814C178.682 18.082 179.558 18.3123 180.325 18.7721C181.091 19.2272 181.692 19.8644 182.127 20.6839C182.558 21.4985 182.77 22.4457 182.764 23.5252ZM180.35 23.5377C180.35 23.0643 180.237 22.6404 180.01 22.2662C179.783 21.892 179.475 21.5982 179.087 21.3849C178.699 21.1715 178.263 21.0647 177.78 21.0644C177.297 21.064 176.864 21.1703 176.48 21.3831C176.097 21.5911 175.791 21.8798 175.564 22.2489C175.336 22.6181 175.222 23.0394 175.222 23.5129C175.222 23.868 175.288 24.1971 175.42 24.5002C175.552 24.7986 175.737 25.0615 175.973 25.289C176.21 25.5117 176.485 25.6871 176.797 25.8151C177.105 25.9432 177.434 26.0073 177.784 26.0076C178.253 26.0079 178.681 25.9016 179.07 25.6888C179.458 25.4713 179.769 25.178 180.001 24.8088C180.233 24.4349 180.349 24.0112 180.35 23.5377ZM182.773 10.4783C182.773 11.5721 182.594 12.545 182.239 13.397C181.878 14.2443 181.388 14.9092 180.767 15.3917C180.147 15.8742 179.443 16.1152 178.657 16.1147C178.051 16.1143 177.495 15.9766 176.989 15.7016C176.477 15.4219 176.054 15.0428 175.718 14.5644C175.378 14.0859 175.16 13.5507 175.066 12.9588L174.966 12.9587C174.81 13.7351 174.433 14.3646 173.836 14.8472C173.234 15.3297 172.536 15.5707 171.74 15.5702C170.987 15.5696 170.317 15.349 169.731 14.9083C169.139 14.4675 168.675 13.8635 168.34 13.0962C167.999 12.3242 167.83 11.4481 167.83 10.468C167.831 9.48791 168.002 8.61444 168.343 7.84763C168.685 7.07609 169.152 6.47035 169.744 6.03042C170.331 5.59048 170.999 5.36841 171.747 5.36419C172.547 5.36947 173.246 5.61617 173.842 6.10427C174.438 6.59237 174.814 7.21763 174.97 7.98005L175.069 7.98012C175.164 7.39779 175.382 6.87001 175.724 6.39676C176.06 5.91877 176.484 5.54028 176.996 5.26127C177.503 4.97753 178.059 4.8335 178.665 4.82919C179.451 4.83446 180.154 5.07879 180.774 5.56218C181.394 6.04556 181.884 6.71351 182.243 7.56603C182.597 8.41381 182.774 9.38458 182.773 10.4783ZM180.515 10.4768C180.515 9.98908 180.428 9.56288 180.253 9.19818C180.073 8.83347 179.827 8.54921 179.515 8.3454C179.198 8.13685 178.833 8.03243 178.421 8.03214C178 8.03185 177.628 8.13813 177.306 8.35098C176.979 8.56382 176.723 8.85247 176.539 9.21692C176.349 9.58138 176.254 10.0003 176.254 10.4738C176.253 10.9426 176.348 11.3617 176.537 11.7311C176.721 12.1006 176.977 12.3919 177.303 12.6052C177.625 12.8138 177.997 12.9182 178.418 12.9185C178.83 12.9188 179.195 12.8172 179.512 12.6139C179.825 12.4105 180.071 12.1242 180.251 11.755C180.427 11.3858 180.515 10.9597 180.515 10.4768ZM174.016 10.4723C174.017 10.0651 173.934 9.70282 173.769 9.38547C173.603 9.06812 173.374 8.81938 173.08 8.63925C172.787 8.45913 172.448 8.36893 172.065 8.36867C171.686 8.36841 171.354 8.45814 171.07 8.63787C170.781 8.81759 170.556 9.06365 170.395 9.37604C170.229 9.68842 170.146 10.053 170.146 10.4696C170.145 10.8815 170.228 11.2462 170.393 11.5635C170.554 11.8809 170.779 12.1296 171.068 12.3097C171.352 12.4851 171.683 12.573 172.062 12.5732C172.445 12.5735 172.784 12.4837 173.078 12.304C173.371 12.1243 173.601 11.8759 173.767 11.5588C173.933 11.2416 174.016 10.8795 174.016 10.4723Z"/>
</mask>
<path d="M168.014 32.5544L182.559 32.5645L182.557 35.6398L170.931 35.6317L170.931 35.717L173.017 39.0494L170.289 39.0475L168.012 35.4451L168.014 32.5544ZM182.764 23.5252C182.759 24.2733 182.633 24.9953 182.387 25.6911C182.14 26.3823 181.739 27.0022 181.185 27.5511C180.631 28.1 179.896 28.5351 178.982 28.8564C178.068 29.173 176.946 29.3308 175.616 29.3299C174.394 29.3244 173.303 29.1839 172.342 28.9086C171.376 28.6286 170.557 28.2303 169.885 27.7138C169.213 27.1925 168.702 26.5695 168.352 25.8448C167.998 25.1201 167.821 24.308 167.821 23.4084C167.822 22.4377 168.012 21.5808 168.391 20.8377C168.766 20.0946 169.275 19.4984 169.92 19.049C170.564 18.5949 171.286 18.3208 172.086 18.2266L172.084 21.2593C171.578 21.3773 171.18 21.6256 170.891 22.0042C170.601 22.3828 170.457 22.8515 170.456 23.4102C170.456 24.3571 170.867 25.0771 171.691 25.5701C172.514 26.0584 173.634 26.3077 175.049 26.3182L175.05 26.2187C174.619 26.0006 174.252 25.7068 173.949 25.3373C173.642 24.963 173.408 24.5391 173.247 24.0655C173.082 23.5872 172.999 23.0829 173 22.5526C173 21.6908 173.204 20.9239 173.612 20.2518C174.015 19.5798 174.569 19.0498 175.275 18.6621C175.981 18.2743 176.788 18.0807 177.697 18.0814C178.682 18.082 179.558 18.3123 180.325 18.7721C181.091 19.2272 181.692 19.8644 182.127 20.6839C182.558 21.4985 182.77 22.4457 182.764 23.5252ZM180.35 23.5377C180.35 23.0643 180.237 22.6404 180.01 22.2662C179.783 21.892 179.475 21.5982 179.087 21.3849C178.699 21.1715 178.263 21.0647 177.78 21.0644C177.297 21.064 176.864 21.1703 176.48 21.3831C176.097 21.5911 175.791 21.8798 175.564 22.2489C175.336 22.6181 175.222 23.0394 175.222 23.5129C175.222 23.868 175.288 24.1971 175.42 24.5002C175.552 24.7986 175.737 25.0615 175.973 25.289C176.21 25.5117 176.485 25.6871 176.797 25.8151C177.105 25.9432 177.434 26.0073 177.784 26.0076C178.253 26.0079 178.681 25.9016 179.07 25.6888C179.458 25.4713 179.769 25.178 180.001 24.8088C180.233 24.4349 180.349 24.0112 180.35 23.5377ZM182.773 10.4783C182.773 11.5721 182.594 12.545 182.239 13.397C181.878 14.2443 181.388 14.9092 180.767 15.3917C180.147 15.8742 179.443 16.1152 178.657 16.1147C178.051 16.1143 177.495 15.9766 176.989 15.7016C176.477 15.4219 176.054 15.0428 175.718 14.5644C175.378 14.0859 175.16 13.5507 175.066 12.9588L174.966 12.9587C174.81 13.7351 174.433 14.3646 173.836 14.8472C173.234 15.3297 172.536 15.5707 171.74 15.5702C170.987 15.5696 170.317 15.349 169.731 14.9083C169.139 14.4675 168.675 13.8635 168.34 13.0962C167.999 12.3242 167.83 11.4481 167.83 10.468C167.831 9.48791 168.002 8.61444 168.343 7.84763C168.685 7.07609 169.152 6.47035 169.744 6.03042C170.331 5.59048 170.999 5.36841 171.747 5.36419C172.547 5.36947 173.246 5.61617 173.842 6.10427C174.438 6.59237 174.814 7.21763 174.97 7.98005L175.069 7.98012C175.164 7.39779 175.382 6.87001 175.724 6.39676C176.06 5.91877 176.484 5.54028 176.996 5.26127C177.503 4.97753 178.059 4.8335 178.665 4.82919C179.451 4.83446 180.154 5.07879 180.774 5.56218C181.394 6.04556 181.884 6.71351 182.243 7.56603C182.597 8.41381 182.774 9.38458 182.773 10.4783ZM180.515 10.4768C180.515 9.98908 180.428 9.56288 180.253 9.19818C180.073 8.83347 179.827 8.54921 179.515 8.3454C179.198 8.13685 178.833 8.03243 178.421 8.03214C178 8.03185 177.628 8.13813 177.306 8.35098C176.979 8.56382 176.723 8.85247 176.539 9.21692C176.349 9.58138 176.254 10.0003 176.254 10.4738C176.253 10.9426 176.348 11.3617 176.537 11.7311C176.721 12.1006 176.977 12.3919 177.303 12.6052C177.625 12.8138 177.997 12.9182 178.418 12.9185C178.83 12.9188 179.195 12.8172 179.512 12.6139C179.825 12.4105 180.071 12.1242 180.251 11.755C180.427 11.3858 180.515 10.9597 180.515 10.4768ZM174.016 10.4723C174.017 10.0651 173.934 9.70282 173.769 9.38547C173.603 9.06812 173.374 8.81938 173.08 8.63925C172.787 8.45913 172.448 8.36893 172.065 8.36867C171.686 8.36841 171.354 8.45814 171.07 8.63787C170.781 8.81759 170.556 9.06365 170.395 9.37604C170.229 9.68842 170.146 10.053 170.146 10.4696C170.145 10.8815 170.228 11.2462 170.393 11.5635C170.554 11.8809 170.779 12.1296 171.068 12.3097C171.352 12.4851 171.683 12.573 172.062 12.5732C172.445 12.5735 172.784 12.4837 173.078 12.304C173.371 12.1243 173.601 11.8759 173.767 11.5588C173.933 11.2416 174.016 10.8795 174.016 10.4723Z" fill="#FF0000"/>
<path d="M168.014 32.5544L168.017 28.5544L164.017 28.5517L164.014 32.5517L168.014 32.5544ZM182.559 32.5645L186.559 32.5672L186.562 28.5672L182.562 28.5645L182.559 32.5645ZM182.557 35.6398L182.554 39.6398L186.554 39.6425L186.557 35.6425L182.557 35.6398ZM170.931 35.6317L170.934 31.6317L166.934 31.629L166.931 35.629L170.931 35.6317ZM170.931 35.717L166.931 35.7142L166.93 36.8643L167.54 37.8392L170.931 35.717ZM173.017 39.0494L173.014 43.0494L180.242 43.0544L176.407 36.9272L173.017 39.0494ZM170.289 39.0475L166.908 41.1849L168.085 43.046L170.287 43.0475L170.289 39.0475ZM168.012 35.4451L164.012 35.4423L164.011 36.6021L164.631 37.5825L168.012 35.4451ZM168.014 32.5544L168.011 36.5544L182.557 36.5645L182.559 32.5645L182.562 28.5645L168.017 28.5544L168.014 32.5544ZM182.559 32.5645L178.559 32.5617L178.557 35.637L182.557 35.6398L186.557 35.6425L186.559 32.5672L182.559 32.5645ZM182.557 35.6398L182.56 31.6398L170.934 31.6317L170.931 35.6317L170.928 39.6317L182.554 39.6398L182.557 35.6398ZM170.931 35.6317L166.931 35.629L166.931 35.7142L170.931 35.717L174.931 35.7197L174.931 35.6345L170.931 35.6317ZM170.931 35.717L167.54 37.8392L169.626 41.1716L173.017 39.0494L176.407 36.9272L174.321 33.5948L170.931 35.717ZM173.017 39.0494L173.019 35.0494L170.292 35.0475L170.289 39.0475L170.287 43.0475L173.014 43.0494L173.017 39.0494ZM170.289 39.0475L173.67 36.9101L171.393 33.3077L168.012 35.4451L164.631 37.5825L166.908 41.1849L170.289 39.0475ZM168.012 35.4451L172.012 35.4478L172.014 32.5572L168.014 32.5544L164.014 32.5517L164.012 35.4423L168.012 35.4451ZM182.764 23.5252L186.764 23.5533L186.764 23.5455L182.764 23.5252ZM182.387 25.6911L186.154 27.0358L186.157 27.0277L182.387 25.6911ZM181.185 27.5511L183.999 30.3936L181.185 27.5511ZM178.982 28.8564L180.292 32.6361L180.3 32.6331L180.309 32.63L178.982 28.8564ZM175.616 29.3299L175.597 33.3299L175.605 33.3299L175.613 33.3299L175.616 29.3299ZM172.342 28.9086L171.228 32.7504L171.24 32.754L172.342 28.9086ZM169.885 27.7138L167.433 30.8743L167.44 30.8797L167.447 30.8851L169.885 27.7138ZM168.352 25.8448L171.954 24.1057L171.95 24.0961L171.945 24.0867L168.352 25.8448ZM168.391 20.8377L171.954 22.6562L171.959 22.6472L171.963 22.6381L168.391 20.8377ZM169.92 19.049L172.208 22.3298L172.216 22.3241L172.224 22.3185L169.92 19.049ZM172.086 18.2266L176.086 18.2294L176.089 13.7281L171.619 14.254L172.086 18.2266ZM172.084 21.2593L172.992 25.155L176.082 24.4352L176.084 21.2621L172.084 21.2593ZM171.691 25.5701L169.636 29.0022L169.643 29.0065L169.651 29.0108L171.691 25.5701ZM175.049 26.3182L175.02 30.3181L179.047 30.3478L179.049 26.3209L175.049 26.3182ZM175.05 26.2187L179.05 26.2215L179.051 23.7615L176.857 22.6502L175.05 26.2187ZM173.949 25.3373L177.043 22.8022L177.04 22.798L173.949 25.3373ZM173.247 24.0655L177.035 22.7805L177.031 22.7694L177.027 22.7584L173.247 24.0655ZM173.612 20.2518L177.032 22.3263L177.037 22.3175L177.043 22.3086L173.612 20.2518ZM180.325 18.7721L178.267 22.2025L178.275 22.2072L178.283 22.2119L180.325 18.7721ZM182.127 20.6839L185.664 18.8157L185.66 18.8082L182.127 20.6839ZM180.01 22.2662L183.43 20.1915L183.43 20.1915L180.01 22.2662ZM179.087 21.3849L181.014 17.8795L181.014 17.8795L179.087 21.3849ZM176.48 21.3831L178.387 24.8993L178.404 24.8902L178.421 24.8811L176.48 21.3831ZM175.564 22.2489L172.158 20.1502L172.158 20.1502L175.564 22.2489ZM175.42 24.5002L171.754 26.101L171.759 26.1116L171.764 26.1223L175.42 24.5002ZM175.973 25.289L173.201 28.1726L173.217 28.1872L173.232 28.2016L175.973 25.289ZM176.797 25.8151L178.334 22.1222L178.324 22.1181L178.314 22.114L176.797 25.8151ZM179.07 25.6888L180.992 29.1968L181.008 29.1879L181.024 29.1788L179.07 25.6888ZM180.001 24.8088L183.386 26.9389L183.393 26.9293L183.399 26.9195L180.001 24.8088ZM182.764 23.5252L178.765 23.4971C178.762 23.8053 178.712 24.0847 178.616 24.3546L182.387 25.6911L186.157 27.0277C186.554 25.9059 186.756 24.7413 186.764 23.5533L182.764 23.5252ZM182.387 25.6911L178.619 24.3465C178.587 24.4379 178.527 24.5542 178.371 24.7086L181.185 27.5511L183.999 30.3936C184.952 29.4503 185.693 28.3266 186.154 27.0358L182.387 25.6911ZM181.185 27.5511L178.371 24.7086C178.326 24.7525 178.143 24.9115 177.656 25.0828L178.982 28.8564L180.309 32.63C181.65 32.1586 182.935 31.4474 183.999 30.3936L181.185 27.5511ZM178.982 28.8564L177.673 25.0767C177.307 25.2037 176.658 25.3306 175.618 25.3299L175.616 29.3299L175.613 33.3299C177.234 33.331 178.83 33.1423 180.292 32.6361L178.982 28.8564ZM175.616 29.3299L175.634 25.33C174.701 25.3257 173.984 25.2182 173.443 25.0633L172.342 28.9086L171.24 32.754C172.621 33.1496 174.087 33.323 175.597 33.3299L175.616 29.3299ZM172.342 28.9086L173.456 25.0669C172.882 24.9005 172.533 24.704 172.323 24.5425L169.885 27.7138L167.447 30.8851C168.581 31.7567 169.87 32.3568 171.228 32.7504L172.342 28.9086ZM169.885 27.7138L172.337 24.5533C172.125 24.3885 172.021 24.2425 171.954 24.1057L168.352 25.8448L164.75 27.5839C165.384 28.8965 166.302 29.9965 167.433 30.8743L169.885 27.7138ZM168.352 25.8448L171.945 24.0867C171.888 23.9706 171.821 23.7713 171.821 23.4111L167.821 23.4084L163.821 23.4056C163.82 24.8446 164.107 26.2697 164.759 27.603L168.352 25.8448ZM167.821 23.4084L171.821 23.4111C171.822 22.9685 171.905 22.7518 171.954 22.6562L168.391 20.8377L164.829 19.0192C164.119 20.4098 163.822 21.9069 163.821 23.4056L167.821 23.4084ZM168.391 20.8377L171.963 22.6381C172.058 22.4509 172.14 22.3771 172.208 22.3298L169.92 19.049L167.631 15.7682C166.411 16.6196 165.474 17.7383 164.819 19.0373L168.391 20.8377ZM169.92 19.049L172.224 22.3185C172.311 22.2568 172.399 22.2174 172.554 22.1992L172.086 18.2266L171.619 14.254C170.173 14.4242 168.816 14.933 167.615 15.7795L169.92 19.049ZM172.086 18.2266L168.086 18.2239L168.084 21.2566L172.084 21.2593L176.084 21.2621L176.086 18.2294L172.086 18.2266ZM172.084 21.2593L171.177 17.3636C169.855 17.6715 168.618 18.39 167.711 19.5767L170.891 22.0042L174.07 24.4318C173.926 24.6197 173.74 24.7923 173.523 24.9275C173.311 25.0602 173.12 25.1251 172.992 25.155L172.084 21.2593ZM170.891 22.0042L167.711 19.5767C166.802 20.7672 166.457 22.1296 166.456 23.4074L170.456 23.4102L174.456 23.4129C174.456 23.4783 174.448 23.6241 174.387 23.82C174.325 24.0224 174.22 24.2353 174.07 24.4318L170.891 22.0042ZM170.456 23.4102L166.456 23.4074C166.455 25.7852 167.625 27.7983 169.636 29.0022L171.691 25.5701L173.745 22.1381C173.829 22.1882 174.052 22.3514 174.237 22.6758C174.424 23.0026 174.456 23.2898 174.456 23.4129L170.456 23.4102ZM171.691 25.5701L169.651 29.0108C171.307 29.9928 173.212 30.3047 175.02 30.3181L175.049 26.3182L175.079 22.3183C174.055 22.3107 173.721 22.124 173.731 22.1294L171.691 25.5701ZM175.049 26.3182L179.049 26.3209L179.05 26.2215L175.05 26.2187L171.05 26.216L171.049 26.3154L175.049 26.3182ZM175.05 26.2187L176.857 22.6502C176.881 22.6623 176.915 22.6828 176.952 22.7131C176.99 22.7434 177.021 22.7749 177.043 22.8022L173.949 25.3373L170.855 27.8724C171.514 28.6769 172.321 29.3207 173.243 29.7873L175.05 26.2187ZM173.949 25.3373L177.04 22.798C177.04 22.7984 177.041 22.7996 177.042 22.8014C177.044 22.8032 177.044 22.8046 177.045 22.8051C177.045 22.8057 177.044 22.8045 177.043 22.801C177.041 22.7975 177.039 22.7909 177.035 22.7805L173.247 24.0655L169.459 25.3505C169.77 26.2658 170.235 27.1176 170.859 27.8766L173.949 25.3373ZM173.247 24.0655L177.027 22.7584C177.015 22.7212 176.999 22.6613 177 22.5553L173 22.5526L169 22.5498C168.999 23.5044 169.149 24.4531 169.467 25.3726L173.247 24.0655ZM173 22.5526L177 22.5553C177 22.4414 177.013 22.3813 177.018 22.3599C177.024 22.3409 177.027 22.3336 177.032 22.3263L173.612 20.2518L170.192 18.1773C169.369 19.5334 169.001 21.0301 169 22.5498L173 22.5526ZM173.612 20.2518L177.043 22.3086C177.071 22.2616 177.098 22.2242 177.201 22.1678L175.275 18.6621L173.349 15.1564C172.04 15.8755 170.959 16.8979 170.181 18.195L173.612 20.2518ZM175.275 18.6621L177.201 22.1678C177.243 22.1447 177.371 22.0811 177.694 22.0814L177.697 18.0814L177.7 14.0814C176.205 14.0803 174.718 14.4039 173.349 15.1564L175.275 18.6621ZM177.697 18.0814L177.694 22.0814C178.031 22.0816 178.183 22.152 178.267 22.2025L180.325 18.7721L182.382 15.3417C180.933 14.4725 179.333 14.0825 177.7 14.0814L177.697 18.0814ZM180.325 18.7721L178.283 22.2119C178.392 22.2767 178.489 22.3609 178.594 22.5595L182.127 20.6839L185.66 18.8082C184.896 17.368 183.79 16.1777 182.366 15.3323L180.325 18.7721ZM182.127 20.6839L178.59 22.552C178.664 22.6924 178.767 22.9701 178.765 23.5049L182.764 23.5252L186.764 23.5455C186.773 21.9212 186.451 20.3047 185.664 18.8157L182.127 20.6839ZM180.35 23.5377L184.35 23.5405C184.35 22.3966 184.067 21.2431 183.43 20.1915L180.01 22.2662L176.59 24.3409C176.506 24.2029 176.442 24.0517 176.401 23.8981C176.36 23.7465 176.35 23.6206 176.35 23.535L180.35 23.5377ZM180.01 22.2662L183.43 20.1915C182.834 19.2104 182.009 18.4264 181.014 17.8795L179.087 21.3849L177.16 24.8902C177.063 24.8367 176.953 24.7602 176.846 24.6577C176.738 24.555 176.653 24.4453 176.59 24.3409L180.01 22.2662ZM179.087 21.3849L181.014 17.8795C179.984 17.3134 178.876 17.0651 177.783 17.0644L177.78 21.0644L177.778 25.0644C177.723 25.0643 177.632 25.0581 177.516 25.0296C177.399 25.0007 177.277 24.9542 177.16 24.8902L179.087 21.3849ZM177.78 21.0644L177.783 17.0644C176.691 17.0636 175.577 17.3102 174.54 17.8851L176.48 21.3831L178.421 24.8811C178.297 24.9498 178.168 24.9987 178.046 25.0287C177.925 25.0583 177.832 25.0644 177.778 25.0644L177.78 21.0644ZM176.48 21.3831L174.574 17.8669C173.579 18.4061 172.755 19.1816 172.158 20.1502L175.564 22.2489L178.969 24.3477C178.905 24.451 178.819 24.5606 178.71 24.6637C178.601 24.7666 178.489 24.8442 178.387 24.8993L176.48 21.3831ZM175.564 22.2489L172.158 20.1502C171.507 21.2069 171.223 22.3668 171.222 23.5101L175.222 23.5129L179.222 23.5157C179.222 23.601 179.211 23.7296 179.169 23.8859C179.126 24.0445 179.058 24.2023 178.969 24.3477L175.564 22.2489ZM175.222 23.5129L171.222 23.5101C171.221 24.3759 171.385 25.2557 171.754 26.101L175.42 24.5002L179.086 22.8995C179.19 23.1385 179.222 23.3601 179.222 23.5157L175.222 23.5129ZM175.42 24.5002L171.764 26.1223C172.107 26.8971 172.593 27.5879 173.201 28.1726L175.973 25.289L178.746 22.4053C178.881 22.5352 178.997 22.7001 179.076 22.8782L175.42 24.5002ZM175.973 25.289L173.232 28.2016C173.839 28.773 174.532 29.2099 175.28 29.5163L176.797 25.8151L178.314 22.114C178.437 22.1642 178.581 22.2504 178.715 22.3764L175.973 25.289ZM176.797 25.8151L175.26 29.508C176.079 29.8488 176.932 30.007 177.781 30.0076L177.784 26.0076L177.787 22.0076C177.936 22.0077 178.131 22.0376 178.334 22.1222L176.797 25.8151ZM177.784 26.0076L177.781 30.0076C178.882 30.0083 179.979 29.7519 180.992 29.1968L179.07 25.6888L177.148 22.1809C177.255 22.1221 177.373 22.0757 177.495 22.0456C177.615 22.0158 177.716 22.0075 177.787 22.0076L177.784 26.0076ZM179.07 25.6888L181.024 29.1788C181.983 28.6417 182.791 27.8859 183.386 26.9389L180.001 24.8088L176.615 22.6787C176.674 22.5847 176.752 22.4881 176.846 22.3988C176.94 22.3098 177.034 22.2443 177.115 22.1989L179.07 25.6888ZM180.001 24.8088L183.399 26.9195C184.054 25.8647 184.349 24.7003 184.35 23.5405L180.35 23.5377L176.35 23.535C176.35 23.4425 176.362 23.3096 176.405 23.1518C176.449 22.9921 176.517 22.8373 176.603 22.6981L180.001 24.8088ZM182.239 13.397L185.92 14.9628L185.925 14.9504L185.93 14.938L182.239 13.397ZM180.767 15.3917L183.222 18.5495L180.767 15.3917ZM176.989 15.7016L175.069 19.2106L175.08 19.2169L176.989 15.7016ZM175.718 14.5644L178.992 12.2663L178.984 12.2555L178.977 12.2447L175.718 14.5644ZM175.066 12.9588L179.016 12.3296L178.479 8.96116L175.069 8.95881L175.066 12.9588ZM174.966 12.9587L174.969 8.95874L171.694 8.95648L171.046 12.167L174.966 12.9587ZM173.836 14.8472L176.338 17.9676L176.344 17.9627L176.35 17.9579L173.836 14.8472ZM169.731 14.9083L172.133 11.7099L172.127 11.7053L172.121 11.7007L169.731 14.9083ZM168.34 13.0962L172.005 11.4931L172 11.4825L168.34 13.0962ZM168.343 7.84763L171.998 9.47471L172.001 9.46638L168.343 7.84763ZM169.744 6.03042L172.129 9.24128L172.135 9.23669L172.142 9.23207L169.744 6.03042ZM171.747 5.36419L171.774 1.36427L171.749 1.36411L171.725 1.36425L171.747 5.36419ZM173.842 6.10427L171.308 9.19944L171.308 9.19945L173.842 6.10427ZM174.97 7.98005L171.051 8.78052L171.704 11.9778L174.967 11.98L174.97 7.98005ZM175.069 7.98012L175.066 11.9801L178.469 11.9825L179.017 8.62482L175.069 7.98012ZM175.724 6.39676L178.968 8.73622L178.981 8.71787L178.994 8.69939L175.724 6.39676ZM176.996 5.26127L178.911 8.77293L178.931 8.76234L178.95 8.75153L176.996 5.26127ZM178.665 4.82918L178.692 0.829274L178.664 0.829091L178.637 0.829286L178.665 4.82918ZM180.774 5.56218L178.314 8.71659L178.314 8.71659L180.774 5.56218ZM182.243 7.56603L185.933 6.02279L185.929 6.01269L182.243 7.56603ZM180.253 9.19818L183.86 7.46822L183.851 7.44929L183.841 7.43046L180.253 9.19818ZM179.515 8.3454L177.317 11.6874L177.323 11.6914L177.329 11.6953L179.515 8.3454ZM177.306 8.35098L179.489 11.7029L179.5 11.6956L179.511 11.6882L177.306 8.35098ZM176.539 9.21692L180.087 11.0633L180.096 11.0451L180.106 11.0268L176.539 9.21692ZM176.537 11.7311L180.116 9.94474L180.107 9.92648L180.097 9.90832L176.537 11.7311ZM177.303 12.6052L175.116 15.9542L175.122 15.9581L175.128 15.962L177.303 12.6052ZM179.512 12.6139L181.67 15.9817L181.682 15.9743L181.693 15.9668L179.512 12.6139ZM180.251 11.755L183.846 13.5094L183.855 13.4906L183.864 13.4718L180.251 11.755ZM173.769 9.38547L170.222 11.2351L170.222 11.2351L173.769 9.38547ZM173.08 8.63925L170.988 12.0482L170.988 12.0482L173.08 8.63925ZM171.07 8.63787L173.183 12.0344L173.195 12.0266L173.208 12.0186L171.07 8.63787ZM170.395 9.37604L173.928 11.2525L173.939 11.2315L173.95 11.2103L170.395 9.37604ZM170.393 11.5635L173.962 9.75589L173.951 9.73484L173.94 9.71391L170.393 11.5635ZM171.068 12.3097L168.95 15.7034L168.958 15.7082L168.966 15.713L171.068 12.3097ZM173.078 12.304L175.166 15.7159L175.166 15.7159L173.078 12.304ZM173.767 11.5588L170.223 9.70424L170.223 9.70425L173.767 11.5588ZM182.773 10.4783L178.773 10.4756C178.773 11.137 178.666 11.5725 178.548 11.856L182.239 13.397L185.93 14.938C186.523 13.5174 186.772 12.0071 186.773 10.4811L182.773 10.4783ZM182.239 13.397L178.558 11.8312C178.486 12.0003 178.422 12.1014 178.382 12.1565C178.343 12.2093 178.319 12.2287 178.312 12.2339L180.767 15.3917L183.222 18.5495C184.466 17.5828 185.339 16.3285 185.92 14.9628L182.239 13.397ZM180.767 15.3917L178.312 12.2339C178.33 12.2195 178.388 12.1812 178.478 12.1503C178.568 12.1195 178.636 12.1147 178.66 12.1147L178.657 16.1147L178.655 20.1147C180.331 20.1159 181.899 19.5784 183.222 18.5495L180.767 15.3917ZM178.657 16.1147L178.66 12.1147C178.66 12.1147 178.668 12.1147 178.684 12.1166C178.7 12.1185 178.721 12.122 178.747 12.1283C178.801 12.1417 178.853 12.1625 178.897 12.1863L176.989 15.7016L175.08 19.2169C176.202 19.8261 177.418 20.1138 178.655 20.1147L178.657 16.1147ZM176.989 15.7016L178.909 12.1926C178.915 12.196 178.933 12.2073 178.955 12.2271C178.977 12.2468 178.99 12.2628 178.992 12.2663L175.718 14.5644L172.444 16.8625C173.131 17.8414 174.017 18.6355 175.069 19.2106L176.989 15.7016ZM175.718 14.5644L178.977 12.2447C178.984 12.2543 178.995 12.2736 179.005 12.2985C179.015 12.3232 179.017 12.3364 179.016 12.3296L175.066 12.9588L171.116 13.588C171.305 14.7762 171.753 15.8924 172.459 16.884L175.718 14.5644ZM175.066 12.9588L175.069 8.95881L174.969 8.95874L174.966 12.9587L174.964 16.9587L175.063 16.9588L175.066 12.9588ZM174.966 12.9587L171.046 12.167C171.05 12.145 171.071 12.0638 171.134 11.9585C171.198 11.8516 171.271 11.7768 171.321 11.7364L173.836 14.8472L176.35 17.9579C177.697 16.8697 178.552 15.4083 178.887 13.7505L174.966 12.9587ZM173.836 14.8472L171.333 11.7268C171.375 11.6933 171.452 11.6444 171.556 11.6085C171.658 11.5732 171.73 11.5701 171.743 11.5702L171.74 15.5702L171.737 19.5701C173.413 19.5713 175.002 19.0391 176.338 17.9676L173.836 14.8472ZM171.74 15.5702L171.743 11.5702C171.762 11.5702 171.83 11.574 171.925 11.6051C172.02 11.6365 172.092 11.6794 172.133 11.7099L169.731 14.9083L167.328 18.1066C168.626 19.0814 170.143 19.569 171.737 19.5701L171.74 15.5702ZM169.731 14.9083L172.121 11.7007C172.13 11.7074 172.127 11.7085 172.112 11.6892C172.096 11.6679 172.056 11.6096 172.005 11.4931L168.34 13.0962L164.675 14.6993C165.251 16.0155 166.12 17.2065 167.341 18.1158L169.731 14.9083ZM168.34 13.0962L172 11.4825C171.917 11.2956 171.83 10.9835 171.83 10.4708L167.83 10.468L163.83 10.4653C163.829 11.9128 164.081 13.3528 164.68 14.7099L168.34 13.0962ZM167.83 10.468L171.83 10.4708C171.831 9.95741 171.919 9.65167 171.998 9.47471L168.343 7.84763L164.689 6.22056C164.085 7.57722 163.831 9.01841 163.83 10.4653L167.83 10.468ZM168.343 7.84763L172.001 9.46638C172.056 9.34372 172.099 9.28089 172.118 9.2563C172.135 9.23387 172.139 9.2341 172.129 9.24128L169.744 6.03042L167.358 2.81956C166.136 3.72757 165.266 4.91773 164.686 6.22889L168.343 7.84763ZM169.744 6.03042L172.142 9.23207C172.106 9.25868 172.039 9.29913 171.948 9.32951C171.857 9.35963 171.79 9.36401 171.77 9.36412L171.747 5.36419L171.725 1.36425C170.138 1.3732 168.633 1.86461 167.346 2.82876L169.744 6.03042ZM171.747 5.36419L171.721 9.3641C171.712 9.36404 171.642 9.36111 171.538 9.32469C171.433 9.28759 171.353 9.23661 171.308 9.19944L173.842 6.10427L176.376 3.00909C175.043 1.91794 173.45 1.37535 171.774 1.36427L171.747 5.36419ZM173.842 6.10427L171.308 9.19945C171.271 9.1692 171.205 9.10303 171.143 9.00063C171.082 8.89869 171.058 8.81467 171.051 8.78052L174.97 7.98005L178.889 7.17957C178.551 5.52539 177.691 4.08624 176.376 3.00909L173.842 6.10427ZM174.97 7.98005L174.967 11.98L175.066 11.9801L175.069 7.98012L175.072 3.98012L174.973 3.98005L174.97 7.98005ZM175.069 7.98012L179.017 8.62482C179.017 8.62476 179.016 8.63016 179.013 8.63995C179.011 8.6498 179.006 8.662 179.001 8.67559C178.989 8.70497 178.975 8.72632 178.968 8.73622L175.724 6.39676L172.479 4.0573C171.771 5.03922 171.315 6.1485 171.122 7.33542L175.069 7.98012ZM175.724 6.39676L178.994 8.69939C178.992 8.70285 178.98 8.71878 178.958 8.73851C178.936 8.75827 178.917 8.76952 178.911 8.77293L176.996 5.26127L175.081 1.74961C174.029 2.32333 173.141 3.11619 172.453 4.09413L175.724 6.39676ZM176.996 5.26127L178.95 8.75153C178.907 8.77556 178.853 8.79792 178.796 8.81283C178.739 8.82752 178.701 8.82903 178.694 8.82908L178.665 4.82918L178.637 0.829286C177.386 0.838193 176.163 1.14321 175.042 1.77101L176.996 5.26127ZM178.665 4.82918L178.638 8.8291C178.618 8.82896 178.554 8.82423 178.469 8.79467C178.384 8.76512 178.33 8.72896 178.314 8.71659L180.774 5.56218L183.234 2.40776C181.918 1.38214 180.36 0.840477 178.692 0.829274L178.665 4.82918ZM180.774 5.56218L178.314 8.71659C178.319 8.7198 178.341 8.73779 178.38 8.79039C178.42 8.84543 178.484 8.94757 178.557 9.11938L182.243 7.56603L185.929 6.01269C185.351 4.6423 184.481 3.38011 183.234 2.40776L180.774 5.56218ZM182.243 7.56603L178.552 9.10926C178.667 9.38354 178.774 9.81349 178.773 10.4756L182.773 10.4783L186.773 10.4811C186.775 8.95567 186.527 7.44408 185.933 6.0228L182.243 7.56603ZM180.515 10.4768L184.515 10.4795C184.516 9.51366 184.342 8.47356 183.86 7.46822L180.253 9.19818L176.646 10.9281C176.514 10.6522 176.515 10.4645 176.515 10.474L180.515 10.4768ZM180.253 9.19818L183.841 7.43046C183.374 6.48195 182.668 5.62626 181.701 4.99545L179.515 8.3454L177.329 11.6953C176.987 11.4722 176.773 11.185 176.665 10.9659L180.253 9.19818ZM179.515 8.3454L181.713 5.00344C180.688 4.32944 179.547 4.03292 178.424 4.03215L178.421 8.03215L178.419 12.0321C178.285 12.0321 178.107 12.0146 177.902 11.956C177.695 11.8967 177.496 11.8051 177.317 11.6874L179.515 8.3454ZM178.421 8.03215L178.424 4.03215C177.293 4.03137 176.138 4.32856 175.101 5.01373L177.306 8.35098L179.511 11.6882C179.331 11.8071 179.132 11.8987 178.926 11.9576C178.723 12.0156 178.548 12.0322 178.419 12.0321L178.421 8.03215ZM177.306 8.35098L175.123 4.99903C174.179 5.61401 173.458 6.44709 172.971 7.4071L176.539 9.21692L180.106 11.0268C179.988 11.2579 179.78 11.5136 179.489 11.7029L177.306 8.35098ZM176.539 9.21692L172.99 7.37052C172.462 8.38564 172.254 9.45404 172.254 10.4711L176.254 10.4738L180.254 10.4766C180.254 10.5467 180.236 10.7771 180.087 11.0633L176.539 9.21692ZM176.254 10.4738L172.254 10.4711C172.253 11.4917 172.462 12.55 172.976 13.5539L176.537 11.7311L180.097 9.90832C180.233 10.1734 180.254 10.3935 180.254 10.4766L176.254 10.4738ZM176.537 11.7311L172.958 13.5175C173.44 14.4834 174.16 15.3297 175.116 15.9542L177.303 12.6052L179.491 9.2563C179.794 9.45415 180.002 9.71779 180.116 9.94474L176.537 11.7311ZM177.303 12.6052L175.128 15.962C176.16 16.631 177.302 16.9177 178.415 16.9185L178.418 12.9185L178.421 8.91851C178.691 8.91869 179.09 8.99663 179.479 9.24846L177.303 12.6052ZM178.418 12.9185L178.415 16.9185C179.519 16.9193 180.648 16.6365 181.67 15.9817L179.512 12.6139L177.354 9.24603C177.741 8.998 178.141 8.91831 178.421 8.91851L178.418 12.9185ZM179.512 12.6139L181.693 15.9668C182.674 15.3291 183.381 14.4615 183.846 13.5094L180.251 11.755L176.657 10.0006C176.761 9.78685 176.976 9.4919 177.331 9.26091L179.512 12.6139ZM180.251 11.755L183.864 13.4718C184.336 12.4784 184.514 11.4488 184.515 10.4795L180.515 10.4768L176.515 10.474C176.515 10.4706 176.517 10.2932 176.638 10.0382L180.251 11.755ZM174.016 10.4723L178.016 10.475C178.017 9.51248 177.818 8.49957 177.315 7.53584L173.769 9.38547L170.222 11.2351C170.05 10.9061 170.016 10.6177 170.016 10.4695L174.016 10.4723ZM173.769 9.38547L177.315 7.53584C176.829 6.60326 176.108 5.80442 175.173 5.23029L173.08 8.63925L170.988 12.0482C170.639 11.8343 170.377 11.533 170.222 11.2351L173.769 9.38547ZM173.08 8.63925L175.173 5.23029C174.181 4.62133 173.102 4.36938 172.067 4.36867L172.065 8.36867L172.062 12.3687C171.794 12.3685 171.393 12.2969 170.988 12.0482L173.08 8.63925ZM172.065 8.36867L172.067 4.36867C171.029 4.36795 169.936 4.62272 168.932 5.25712L171.07 8.63787L173.208 12.0186C172.773 12.2936 172.342 12.3689 172.062 12.3687L172.065 8.36867ZM171.07 8.63787L168.958 5.24129C168.035 5.81516 167.321 6.61027 166.84 7.54176L170.395 9.37604L173.95 11.2103C173.791 11.517 173.528 11.82 173.183 12.0344L171.07 8.63787ZM170.395 9.37604L166.862 7.49959C166.34 8.48358 166.146 9.51306 166.146 10.4669L170.146 10.4696L174.146 10.4724C174.146 10.5928 174.118 10.8933 173.928 11.2525L170.395 9.37604ZM170.146 10.4696L166.146 10.4669C166.145 11.4259 166.341 12.443 166.847 13.4132L170.393 11.5635L173.94 9.71391C174.115 10.0494 174.146 10.3372 174.146 10.4724L170.146 10.4696ZM170.393 11.5635L166.825 13.3712C167.3 14.3087 168.014 15.1189 168.95 15.7034L171.068 12.3097L173.185 8.91609C173.544 9.1403 173.808 9.45303 173.962 9.75589L170.393 11.5635ZM171.068 12.3097L168.966 15.713C169.962 16.3285 171.041 16.5725 172.059 16.5732L172.062 12.5732L172.065 8.57321C172.325 8.57339 172.741 8.64172 173.17 8.90651L171.068 12.3097ZM172.062 12.5732L172.059 16.5732C173.094 16.5739 174.173 16.3235 175.166 15.7159L173.078 12.304L170.99 8.89218C171.395 8.64403 171.797 8.57303 172.065 8.57321L172.062 12.5732ZM173.078 12.304L175.166 15.7159C176.102 15.143 176.824 14.3452 177.311 13.4133L173.767 11.5588L170.223 9.70425C170.379 9.40658 170.641 9.10558 170.99 8.89218L173.078 12.304ZM173.767 11.5588L177.311 13.4133C177.815 12.4502 178.016 11.4376 178.016 10.475L174.016 10.4723L170.016 10.4695C170.016 10.3214 170.051 10.033 170.223 9.70424L173.767 11.5588Z" fill="black" mask="url(#path-3-outside-2_136_468)"/>
<defs>
<linearGradient id="paint0_linear_136_468" x1="84.5" y1="8" x2="84.5" y2="37" gradientUnits="userSpaceOnUse">
<stop stop-color="#D08E00"/>
<stop offset="0.5" stop-color="#FAF18C"/>
<stop offset="1" stop-color="#DCAD38"/>
</linearGradient>
</defs>
</svg>
